<?xml version="1.0" encoding="UTF-8"?>
<svg version="1.1" xmlns="http://www.w3.org/2000/svg" width="3508" height="2481">
<path d="M0 0 C3.49744897 0.00008079 6.99476564 -0.00680241 10.4921875 -0.02050781 C28.56511565 -0.09009673 46.59109844 0.0119888 64.63769531 1.07202148 C65.65844021 1.13044188 65.65844021 1.13044188 66.69980621 1.1900425 C76.22045655 1.75096697 85.59621352 2.81408093 95.02832031 4.18530273 C87.79973172 82.86719342 67.72439879 160.59560392 -17.97167969 358.18530273 C-18.89787109 359.78825195 -18.89787109 359.78825195 -19.84277344 361.42358398 C-32.15890159 382.71041313 -45.35437583 403.39713481 -59.97167969 423.18530273 C-60.43493652 423.81307617 -60.89819336 424.44084961 -61.37548828 425.08764648 C-71.61409617 438.92342085 -82.15591404 452.41646015 -93.44238281 465.41333008 C-95.00089102 467.21914945 -96.54296197 469.03785551 -98.08105469 470.86108398 C-103.17013335 476.88216948 -108.31588364 482.68490747 -113.97167969 488.18920898 C-115.8446834 490.05855449 -117.57023998 491.98309957 -119.28417969 493.99780273 C-125.83222698 501.61181121 -133.0776646 508.71734084 -140.72558594 515.22045898 C-143.18873139 517.37517579 -145.57111398 519.60326142 -147.95605469 521.84375 C-154.41996023 527.91315704 -161.04449839 533.64539514 -167.97167969 539.18530273 C-169.16326078 540.16658495 -170.35326565 541.14978319 -171.54199219 542.13452148 C-199.84794616 565.51972656 -230.59084141 585.4994455 -262.82763672 603.01928711 C-264.22641647 603.77999903 -265.62332436 604.54416599 -267.01806641 605.31225586 C-337.04825287 643.85349898 -417.6743118 664.84089528 -575.97167969 677.18530273 C-574.68289516 673.77939055 -573.20648746 670.68608449 -571.35449219 667.55249023 C-570.82855469 666.66174805 -570.30261719 665.77100586 -569.76074219 664.85327148 C-569.21160156 663.9315918 -568.66246094 663.00991211 -568.09667969 662.06030273 C-567.33097656 660.75899414 -567.33097656 660.75899414 -566.54980469 659.43139648 C-557.39344673 643.98825687 -547.5919242 628.94677447 -537.6171875 614.02319336 C-535.96886214 611.55608561 -534.32553005 609.0857047 -532.68261719 606.61499023 C-525.61779001 596.01314981 -518.37207469 585.55529464 -510.97167969 575.18530273 C-510.34455078 574.30213379 -509.71742187 573.41896484 -509.07128906 572.5090332 C-500.86457408 560.97059839 -492.3221697 549.70104701 -483.71044922 538.46313477 C-481.50491057 535.57382339 -479.32954287 532.66362161 -477.15917969 529.74780273 C-468.56027679 518.25550717 -459.52738833 507.10802366 -450.44824219 495.99389648 C-449.14120428 494.39294794 -447.83744613 492.78932297 -446.53417969 491.18530273 C-442.1051577 485.74393286 -437.60490753 480.36880879 -433.05932617 475.02490234 C-430.12859428 471.57351586 -427.25438738 468.08294083 -424.40917969 464.56030273 C-420.57798036 459.84813244 -416.53055774 455.3776627 -412.41699219 450.91186523 C-410.12758588 448.35914063 -407.97930097 445.74432419 -405.84667969 443.06030273 C-401.13637763 437.21448142 -396.00170524 431.80172909 -390.81884766 426.37426758 C-386.99578151 422.36641205 -383.28404248 418.29277307 -379.65576172 414.10791016 C-376.99508997 411.07039348 -374.23668853 408.12764377 -371.47167969 405.18530273 C-370.23597753 403.86761792 -369.00030129 402.54990879 -367.76464844 401.23217773 C-367.13606934 400.56250977 -366.50749023 399.8928418 -365.85986328 399.20288086 C-364.03228743 397.25006384 -362.21360195 395.2893774 -360.39746094 393.32592773 C-352.6451099 384.96687097 -344.70462442 376.82986822 -336.58032227 368.83081055 C-332.40120213 364.69834725 -328.41611774 360.48563503 -324.58447266 356.02954102 C-322.17937775 353.2793008 -319.62715758 350.69478486 -317.03417969 348.12280273 C-316.56044922 347.64520508 -316.08671875 347.16760742 -315.59863281 346.67553711 C-312.92596464 344.00998657 -310.18084201 341.4857517 -307.31152344 339.03295898 C-301.74715298 334.21103396 -296.63923497 328.92307391 -291.47167969 323.68530273 C-285.67746666 317.81235889 -279.90822901 311.98481103 -273.62988281 306.62084961 C-271.46526562 304.74688773 -269.4646146 302.73955872 -267.47167969 300.68530273 C-264.16528891 297.27717685 -260.67790231 294.16342437 -257.09472656 291.05444336 C-253.64204138 288.01468281 -250.3109701 284.84849775 -246.97167969 281.68530273 C-242.32813532 277.28663278 -237.63277073 272.97691107 -232.80224609 268.78393555 C-230.38083586 266.66931909 -228.02047518 264.49165503 -225.65917969 262.31030273 C-222.03644063 259.0019336 -218.35475078 255.82517916 -214.53417969 252.74780273 C-210.53941535 249.52585198 -206.72636301 246.17852291 -202.97167969 242.68530273 C-198.44179315 238.47504499 -193.76875577 234.50892243 -188.95214844 230.63061523 C-185.39877026 227.71526171 -181.93452706 224.70709225 -178.47167969 221.68530273 C-172.40137386 216.39503997 -166.23378733 211.24788146 -159.97167969 206.18530273 C-158.24170211 204.76962643 -156.51255732 203.35293194 -154.78417969 201.93530273 C-152.8471159 200.35143576 -150.90956932 198.76815916 -148.97167969 197.18530273 C-148.0720752 196.45005371 -148.0720752 196.45005371 -147.15429688 195.69995117 C-138.4557178 188.59487123 -129.71108414 181.55732627 -120.85253906 174.65258789 C-118.8325235 173.07674501 -116.81615968 171.49629495 -114.79980469 169.91577148 C-100.33096197 158.59477334 -85.62294018 147.60080705 -70.84667969 136.68530273 C-70.10168213 136.13422852 -69.35668457 135.5831543 -68.58911133 135.01538086 C-63.11230945 130.98157968 -57.558072 127.06567105 -51.97167969 123.18530273 C-112.49373301 146.45994461 -167.86250884 179.45313062 -218.97167969 219.18530273 C-219.59703613 219.6688623 -220.22239258 220.15242188 -220.86669922 220.65063477 C-228.360835 226.44692733 -235.6798235 232.40914149 -242.88183594 238.56420898 C-245.74745663 241.00833607 -248.66573491 243.38226007 -251.59667969 245.74780273 C-256.36118776 249.62460043 -260.90811859 253.70001805 -265.42871094 257.85717773 C-267.54235023 259.79224535 -269.67827817 261.6873857 -271.84667969 263.56030273 C-277.04210842 268.08399927 -282.08330854 272.77473569 -287.125 277.46801758 C-288.35956359 278.61607685 -289.59590444 279.76222781 -290.83398438 280.90649414 C-300.28059036 289.64110504 -309.4895489 298.59920298 -318.59667969 307.68530273 C-319.11187164 308.19790649 -319.6270636 308.71051025 -320.15786743 309.23864746 C-325.46012983 314.51983509 -330.66232936 319.83955999 -335.53173828 325.52709961 C-337.40939623 327.68936695 -339.4169236 329.69188265 -341.47167969 331.68530273 C-344.79937432 334.97384802 -347.9250441 338.34911897 -350.96777344 341.90014648 C-353.0284875 344.25008358 -355.14642156 346.53563399 -357.27954102 348.81958008 C-362.32675372 354.22455595 -367.12825476 359.73591068 -371.76074219 365.50561523 C-374.08102919 368.31783588 -376.50239103 371.00327536 -378.97167969 373.68530273 C-383.03151614 378.10170418 -386.8649179 382.64693795 -390.63183594 387.31420898 C-393.15901715 390.41517425 -395.74797748 393.45692374 -398.34667969 396.49780273 C-402.59494477 401.48553955 -406.68536431 406.57652071 -410.70776367 411.74755859 C-413.67596629 415.55709204 -416.69800322 419.31592607 -419.76049805 423.05004883 C-425.60951855 430.18181764 -431.23653052 437.43979449 -436.73339844 444.84545898 C-439.78474253 448.95189602 -442.89131226 453.01468451 -446.00244141 457.07592773 C-452.38630055 465.41111337 -458.64714795 473.80299584 -464.69384766 482.38500977 C-466.63508165 485.11994662 -468.60819544 487.8315262 -470.57836914 490.5456543 C-475.76791384 497.69737271 -480.90165717 504.88582349 -485.97167969 512.12280273 C-486.73399902 513.20972412 -486.73399902 513.20972412 -487.51171875 514.31860352 C-498.19832758 529.61763963 -508.63203649 545.08790757 -518.97167969 560.62280273 C-519.53850464 561.47381561 -520.10532959 562.32482849 -520.68933105 563.20162964 C-538.94908375 590.62049433 -556.63048842 618.39410942 -574.17480469 646.27514648 C-574.7057373 647.11795166 -575.23666992 647.96075684 -575.78369141 648.82910156 C-576.78632431 650.42075389 -577.78803452 652.01298805 -578.78857422 653.60595703 C-582.09780434 658.85725898 -585.50664735 664.03556347 -588.97167969 669.18530273 C-590.87811822 666.32564494 -591.32855247 665.15245363 -591.85375977 661.90551758 C-591.9978125 661.03545074 -592.14186523 660.16538391 -592.2902832 659.26895142 C-592.51349243 657.84695938 -592.51349243 657.84695938 -592.74121094 656.39624023 C-592.90250488 655.40224213 -593.06379883 654.40824402 -593.22998047 653.38412476 C-593.75727356 650.1109143 -594.27186222 646.83588868 -594.78417969 643.56030273 C-594.96153656 642.43740845 -595.13889343 641.31451416 -595.32162476 640.15759277 C-600.71158456 605.94937935 -604.69494757 571.740564 -606.97167969 537.18530273 C-607.07971924 535.6171582 -607.07971924 535.6171582 -607.18994141 534.01733398 C-613.60653455 437.47909437 -599.95991314 336.95951039 -510.97167969 186.18530273 C-508.25326214 183.09074051 -505.46820292 180.06529202 -502.65527344 177.05639648 C-500.81255493 175.08492908 -498.9931306 173.10580248 -497.19433594 171.09545898 C-492.21724494 165.54656909 -487.10672715 160.30100461 -481.48730469 155.38842773 C-478.84981867 153.07857973 -476.28913628 150.69758694 -473.72167969 148.31030273 C-468.01280814 143.12041951 -462.01574828 138.39429214 -455.90673828 133.69213867 C-453.91597904 132.14192847 -451.95224009 130.56197799 -449.99121094 128.97436523 C-378.52643068 71.53616095 -288.35111174 39.32818378 -55.97167969 1.18530273 C-55.2212439 1.13798004 -54.47080811 1.09065735 -53.69763184 1.04190063 C-35.81413317 -0.06188372 -17.90994631 -0.00214423 0 0 Z " fill="#599742" transform="translate(1835.9716796875,888.814697265625)"/>
<path d="M0 0 C67.32 0 134.64 0 204 0 C204.33 84.15 204.66 168.3 205 255 C212.26 233.88 219.52 212.76 227 191 C236.5 163.5 236.5 163.5 241.15625 150.03125 C246.22177912 135.37259493 251.26141883 120.70506404 256.3001709 106.03718948 C263.68490569 84.540364 271.08055159 63.04737215 278.5 41.5625 C279.0873291 39.86081665 279.0873291 39.86081665 279.68652344 38.12475586 C280.80078791 34.89674966 281.91587922 31.66903033 283.03125 28.44140625 C283.34598267 27.52943985 283.66071533 26.61747345 283.98498535 25.6778717 C286.95010771 17.10398966 289.98038365 8.55557965 293 0 C356.36 0 419.72 0 485 0 C481.62538851 11.24870498 481.62538851 11.24870498 480.125 15.11523438 C479.78538239 15.99616257 479.44576477 16.87709076 479.09585571 17.78471375 C478.73422333 18.71169571 478.37259094 19.63867767 478 20.59375 C477.61218353 21.59731033 477.22436707 22.60087067 476.82479858 23.63484192 C475.98933741 25.79588122 475.15224161 27.95628916 474.31365967 30.11611938 C472.04760823 35.95328386 469.79415611 41.79531419 467.5390625 47.63671875 C467.07585602 48.83564255 466.61264954 50.03456635 466.13540649 51.26982117 C461.50336152 63.26692569 456.9339977 75.28748794 452.375 87.3125 C446.3177103 103.28088135 440.23861273 119.24059403 434.125 135.1875 C427.63378475 152.12041351 421.15459291 169.05785759 414.6875 186 C414.03409637 187.71168365 414.03409637 187.71168365 413.36749268 189.45794678 C411.14767306 195.27317524 408.92802974 201.08847097 406.70849609 206.90380859 C404.88346975 211.68544863 403.0582795 216.46702605 401.23291016 221.24853516 C400.54535896 223.04957199 400.54535896 223.04957199 399.84391785 224.88699341 C398.92194757 227.30182094 397.99983938 229.71659583 397.07759094 232.13131714 C394.83588881 238.00110975 392.59623875 243.87166555 390.36157227 249.74414062 C386.54381726 259.77040638 382.70649349 269.78620777 378.7578125 279.76171875 C377.83226506 282.11637544 376.90785603 284.47147537 375.98388672 286.82675171 C375.15593377 288.92172803 374.31097156 291.00923828 373.46484375 293.09692383 C372.98402344 294.32306396 372.50320313 295.5492041 372.0078125 296.8125 C371.59160645 297.85019531 371.17540039 298.88789062 370.74658203 299.95703125 C368.98947756 307.11875466 372.1825653 314.03654424 374.5078125 320.765625 C374.86500366 321.8148111 375.22219482 322.86399719 375.59020996 323.94497681 C376.76232644 327.38211981 377.94349587 330.8160738 379.125 334.25 C379.94750134 336.65497444 380.76959973 339.06008672 381.59130859 341.46533203 C387.14476064 357.69796686 392.77906203 373.90213338 398.45361328 390.09277344 C403.04515019 403.20298244 407.53827271 416.34510084 412 429.5 C417.09620337 444.52519909 422.25375757 459.5265224 427.5 474.5 C433.09293595 490.46298727 438.57723693 506.46043755 444.01025391 522.47851562 C449.07123091 537.39456395 454.21767998 552.27836504 459.42623901 567.14346313 C464.7269853 582.27790783 469.91610713 597.44844664 475.06152344 612.63635254 C478.69551733 623.36101175 482.35819321 634.07369517 486.12109375 644.75390625 C486.45069595 645.690103 486.78029816 646.62629974 487.11988831 647.59086609 C488.68474974 652.03152699 490.25598209 656.46980385 491.83618164 660.9050293 C492.39088828 662.47310898 492.94550007 664.04122221 493.5 665.609375 C493.88308571 666.67455101 493.88308571 666.67455101 494.27391052 667.76124573 C495.29166125 670.64991272 496 672.91147379 496 676 C426.37 676 356.74 676 285 676 C256.13888889 574.98611111 256.13888889 574.98611111 246.125 539.4375 C232.50970077 491.26527463 218.75236424 443.13327485 205 395 C204.505 534.095 204.505 534.095 204 676 C136.68 676 69.36 676 0 676 C0 452.92 0 229.84 0 0 Z " fill="#D8A328" transform="translate(548,887)"/>
<path d="M0 0 C327.43243243 0 327.43243243 0 410 65 C410.89847656 65.70511719 411.79695313 66.41023437 412.72265625 67.13671875 C420.13831958 73.07991944 427.10158804 79.47218391 434 86 C434.680625 86.63808594 435.36125 87.27617188 436.0625 87.93359375 C441.18917179 92.88225611 445.57519954 98.42722175 450 104 C450.79535156 104.97839844 451.59070312 105.95679688 452.41015625 106.96484375 C494.92480777 160.39450882 507.90953957 228.37363811 501 295 C494.41805178 351.34970416 472.89776608 403.4779245 435 446 C434.53803223 446.52368164 434.07606445 447.04736328 433.60009766 447.58691406 C394.50362731 491.73630498 339.89590567 521.34512386 282 532 C281.19933105 532.16081055 280.39866211 532.32162109 279.57373047 532.48730469 C265.02528017 535.33303907 250.39253413 535.28602912 235.625 535.3125 C234.14169189 535.31801376 234.14169189 535.31801376 232.62841797 535.32363892 C229.72342571 535.32926851 226.81900092 535.31817478 223.9140625 535.30078125 C222.64582138 535.30192932 222.64582138 535.30192932 221.35195923 535.30310059 C212.71501355 535.20730469 204.74508612 534.02883366 196 533 C195.505 602.3 195.505 602.3 195 673 C130.65 673 66.3 673 0 673 C0 450.91 0 228.82 0 0 Z M195 204 C195 246.24 195 288.48 195 332 C244.883591 334.70833859 244.883591 334.70833859 285 313 C297.74111763 299.52765301 303.38728658 282.86741513 303.21875 264.5390625 C302.0620358 245.82507913 294.21696143 231.20822216 280.8125 218.35546875 C256.45293112 197.95432981 225.228414 204 195 204 Z " fill="#D8A328" transform="translate(2039,893)"/>
<path d="M0 0 C1.29705368 -0.00696899 2.59410736 -0.01393799 3.9304657 -0.02111816 C8.09817937 -0.04039134 12.26584036 -0.04529535 16.43359375 -0.046875 C17.14448654 -0.04746414 17.85537933 -0.04805328 18.58781433 -0.04866028 C41.79603977 -0.06222594 64.80103726 0.49461192 87.87109375 3.203125 C89.12486816 3.34766113 90.37864258 3.49219727 91.67041016 3.64111328 C126.71966724 7.83032296 161.81065544 15.75684234 194.87109375 28.203125 C194.76967827 29.08186028 194.76967827 29.08186028 194.66621399 29.97834778 C193.81418922 38.17831105 193.64434846 46.3632114 193.51670074 54.59812927 C193.46072103 58.16042258 193.39390131 61.72249172 193.32777214 65.28460884 C193.29236478 67.19221877 193.25734383 69.0998359 193.22268867 71.00745964 C192.59547361 105.49750804 191.58303777 139.93959853 189.80859375 174.390625 C189.74236628 175.68974131 189.74236628 175.68974131 189.67480087 177.01510239 C189.38298082 182.73841065 189.08190767 188.46116011 188.7734375 194.18359375 C188.73491417 194.91073074 188.69639084 195.63786774 188.65670013 196.38703918 C188.54790022 198.42251794 188.43409829 200.45772746 188.32006836 202.49291992 C188.22585854 204.19420296 188.22585854 204.19420296 188.12974548 205.92985535 C187.85682483 209.38369999 187.39562598 212.77920775 186.87109375 216.203125 C186.02442139 215.89197754 185.17774902 215.58083008 184.30541992 215.26025391 C162.4086828 207.25909955 140.409679 200.16880274 117.87109375 194.203125 C117.18442627 194.02114563 116.49775879 193.83916626 115.7902832 193.65167236 C105.53343218 190.94603625 95.23286483 188.47344743 84.87109375 186.203125 C84.11016418 186.03601013 83.34923462 185.86889526 82.56524658 185.69671631 C50.50252587 178.70871925 13.81051493 171.67611203 -15.62890625 190.515625 C-19.97638408 193.74998049 -22.82514012 196.86486998 -24.12890625 202.203125 C-24.35608867 209.35937117 -21.51356194 213.71764085 -17.12890625 219.203125 C-16.22011719 220.37101562 -16.22011719 220.37101562 -15.29296875 221.5625 C-11.1855344 226.25221432 -7.26655711 228.83289919 -1.40625 230.9453125 C-0.72240738 231.19285782 -0.03856476 231.44040314 0.66600037 231.69544983 C11.51007797 235.56983829 22.48385554 239.07981065 33.43359375 242.640625 C35.86392321 243.43459317 38.2941793 244.22878599 40.72436523 245.02319336 C52.51603681 248.87165851 64.31989798 252.67714778 76.15234375 256.3984375 C77.19986313 256.72882523 78.24738251 257.05921295 79.3266449 257.39961243 C84.2194188 258.94246066 89.11448705 260.47666232 94.01586914 261.99194336 C110.73266549 267.21249808 127.37325539 273.28855948 142.80859375 281.640625 C143.66646484 282.09816162 144.52433594 282.55569824 145.40820312 283.02709961 C161.02965586 291.49844193 175.47197371 302.00746162 188.53125 314.05078125 C190.83539959 316.17029114 193.19104809 318.21747842 195.55859375 320.265625 C199.71686596 323.96590569 203.31009706 327.93439885 206.87109375 332.203125 C208.01191406 333.51216797 208.01191406 333.51216797 209.17578125 334.84765625 C245.46498244 377.07200716 257.52312895 428.84334672 253.41015625 483.3984375 C248.23522653 538.32065438 221.8352209 590.76710667 179.2578125 626.28125 C175.86809021 629.02166676 172.38846909 631.62966342 168.87109375 634.203125 C167.87207031 634.94691406 166.87304688 635.69070313 165.84375 636.45703125 C150.07616507 647.80076352 132.80842165 656.8297785 114.87109375 664.203125 C114.11183594 664.51588379 113.35257813 664.82864258 112.5703125 665.15087891 C91.81367364 673.55301575 69.95615581 678.76282968 47.87109375 682.203125 C47.16952148 682.31495117 46.46794922 682.42677734 45.74511719 682.54199219 C30.29234343 684.96341052 14.73081827 685.36322168 -0.87890625 685.37109375 C-2.43139676 685.37432574 -3.983887 685.37769107 -5.53637695 685.38117981 C-8.76660871 685.38710559 -11.99681399 685.38902666 -15.22705078 685.38842773 C-18.48068839 685.38834674 -21.73418438 685.3952577 -24.98779297 685.40893555 C-49.14374332 685.50878172 -73.10346918 685.09007205 -97.00390625 681.140625 C-98.28233398 680.93002441 -99.56076172 680.71942383 -100.87792969 680.50244141 C-142.07657998 673.46192794 -181.78290748 658.95370443 -220.8828125 644.6328125 C-221.78941116 644.30102997 -222.69600983 643.96924744 -223.63008118 643.62741089 C-224.45928574 643.32223541 -225.2884903 643.01705994 -226.14282227 642.70263672 C-226.86776382 642.43603241 -227.59270538 642.1694281 -228.33961487 641.89474487 C-230.12890625 641.203125 -230.12890625 641.203125 -232.12890625 640.203125 C-231.43374026 631.56866313 -229.49752281 623.24897512 -227.60644531 614.81738281 C-227.23962651 613.16551028 -226.8732234 611.5135454 -226.50720215 609.86149597 C-225.51541573 605.39078235 -224.51772422 600.92140552 -223.51886463 596.45226765 C-222.46894297 591.75029338 -221.42422023 587.04716402 -220.37884521 582.34417725 C-218.62001075 574.43495597 -216.85760492 566.52653753 -215.09277344 558.61865234 C-212.8411793 548.52959102 -210.5953898 538.43924722 -208.35150528 528.34846878 C-206.40898267 519.61313668 -204.46376303 510.87840548 -202.51812267 502.14376736 C-201.89997464 499.36819162 -201.28218077 496.59253723 -200.66443634 493.81687164 C-192.4128341 456.74988844 -192.4128341 456.74988844 -188.12890625 439.203125 C-186.71839561 439.50378944 -185.30865324 439.8080591 -183.89923096 440.11378479 C-182.72153074 440.36734663 -182.72153074 440.36734663 -181.5200386 440.62603092 C-177.6716858 441.55482167 -174.00576508 442.91094355 -170.30078125 444.29296875 C-169.48204529 444.59327499 -168.66330933 444.89358124 -167.81976318 445.20298767 C-165.17067116 446.17650134 -162.52476557 447.15836316 -159.87890625 448.140625 C-158.03203445 448.82148828 -156.1850279 449.50198617 -154.33789062 450.18212891 C-142.56235668 454.52561429 -130.81866965 458.94962294 -119.09399414 463.4284668 C-110.88963711 466.55662135 -102.64749439 469.55977936 -94.37353516 472.49829102 C-87.6205209 474.91008182 -80.90643806 477.41079196 -74.203125 479.95703125 C-73.32514755 480.28970001 -72.4471701 480.62236877 -71.54258728 480.96511841 C-67.15806375 482.62661103 -62.77639039 484.2949482 -58.39916992 485.97558594 C-35.49951051 494.70091093 -6.83418046 503.68613961 17.2421875 494.453125 C24.72858304 490.89347185 29.61541309 487.73971876 32.99609375 479.91015625 C35.68058348 471.60501615 35.40136656 464.18517565 31.87109375 456.203125 C21.80242299 436.62883415 -0.12335542 428.76616456 -19.79125977 422.38891602 C-27.32552107 420.00920297 -34.90588907 417.80618666 -42.50390625 415.640625 C-87.72045674 402.71949253 -125.80601255 377.5059046 -159.00390625 344.578125 C-159.87192871 343.71952881 -160.73995117 342.86093262 -161.63427734 341.97631836 C-201.43914049 301.96941942 -228.63637981 246.06047845 -229.15625 189.24609375 C-228.87855711 158.34284231 -222.50801067 127.2339844 -207.12890625 100.203125 C-206.49210937 99.0790625 -205.8553125 97.955 -205.19921875 96.796875 C-178.2806257 51.39201926 -133.0219293 24.12797368 -82.953125 10.87109375 C-55.69761622 4.00194989 -28.12681107 0.10275108 0 0 Z " fill="#D8A328" transform="translate(2819.12890625,885.796875)"/>
<path d="M0 0 C80.85 0 161.7 0 245 0 C253.03257444 20.65519142 253.03257444 20.65519142 256.2421875 29.69921875 C256.79067101 31.23419762 256.79067101 31.23419762 257.35023499 32.80018616 C258.12671499 34.97387357 258.90211781 37.14794605 259.67648315 39.3223877 C261.75683389 45.16345191 263.84586302 51.00141418 265.93359375 56.83984375 C266.56930046 58.61864426 266.56930046 58.61864426 267.21784973 60.43338013 C271.07909497 71.23346828 274.96916442 82.02300688 278.87265015 92.80789185 C279.92850112 95.7251367 280.98344685 98.64270782 282.03833008 101.56030273 C285.24810808 110.43289728 288.47207314 119.29995301 291.7265625 128.15625 C292.29963937 129.71904662 292.87263984 131.28187126 293.44555664 132.84472656 C294.4914112 135.69767299 295.54342018 138.54823615 296.59936523 141.39746094 C297.05255127 142.63270508 297.5057373 143.86794922 297.97265625 145.140625 C298.36718994 146.20829102 298.76172363 147.27595703 299.16821289 148.37597656 C300 151 300 151 300 154 C298.74082764 154.17015625 297.48165527 154.3403125 296.18432617 154.515625 C241.63304299 161.927332 187.60532021 171.43775489 135 188 C134.30406738 188.21893921 133.60813477 188.43787842 132.89111328 188.66345215 C102.72333014 198.18860647 73.21419383 209.16259363 44.62695312 222.75634766 C42.1189221 223.94369989 39.60113905 225.10661002 37.078125 226.26171875 C-8.43005405 247.21610274 -52.54516137 276.01737199 -89.15625 310.3671875 C-91.35039435 312.39857938 -93.56888045 314.36451816 -95.83203125 316.31640625 C-100.12869456 320.05987289 -104.17070143 324.02263847 -108.1875 328.0625 C-109.21520508 329.0844043 -109.21520508 329.0844043 -110.26367188 330.12695312 C-113.28051267 333.14960112 -116.19189103 336.1615023 -118.86328125 339.49609375 C-119.92095703 340.73552734 -119.92095703 340.73552734 -121 342 C-121.66 342 -122.32 342 -123 342 C-120.83119672 334.42281574 -118.28640937 327.02008467 -115.59765625 319.61328125 C-115.16809128 318.42335571 -114.73852631 317.23343018 -114.29594421 316.00744629 C-113.13078517 312.78028036 -111.96222068 309.55435748 -110.79295349 306.32867813 C-109.80719591 303.60781649 -108.82353013 300.88620063 -107.83987999 298.16457653 C-100.34335244 277.4231403 -92.80532183 256.69678751 -85.25976562 235.97314453 C-79.45902235 220.03744378 -73.69976888 204.08717623 -67.96279907 188.12841797 C-61.81043873 171.01485013 -55.63148059 153.91104777 -49.4375 136.8125 C-48.99403229 135.58827332 -48.55056458 134.36404663 -48.09365845 133.10272217 C-46.32727021 128.22661915 -44.56081018 123.35054215 -42.79420471 118.47451782 C-38.60884757 106.92194211 -34.42863898 95.36750715 -30.25 83.8125 C-29.91036224 82.87331726 -29.57072449 81.93413452 -29.22079468 80.9664917 C-27.17999586 75.3231425 -27.17999586 75.3231425 -25.13923645 69.67977905 C-22.93466171 63.58361528 -20.72922059 57.4877655 -18.52325439 51.3921051 C-16.97202746 47.10564166 -15.42100825 42.81910306 -13.86999512 38.53256226 C-13.13612857 36.50455106 -12.40216408 34.4765753 -11.66809082 32.44863892 C-10.64825305 29.63121998 -9.6287796 26.81366944 -8.609375 23.99609375 C-8.31736206 23.18967438 -8.02534912 22.383255 -7.7244873 21.55239868 C-5.12857944 14.37560068 -2.56694862 7.18745613 0 0 Z " fill="#599742" transform="translate(1422,702)"/>
<path d="M0 0 C457.71 0 915.42 0 1387 0 C1387 12.21 1387 24.42 1387 37 C933.58 37 480.16 37 13 37 C0 1 0 1 0 0 Z " fill="#599742" transform="translate(1687,700)"/>
<path d="M0 0 C449.13 0 898.26 0 1361 0 C1361 11.88 1361 23.76 1361 36 C916.16 36 471.32 36 13 36 C9.84923352 28.91077542 6.96774168 21.875262 4.25 14.625 C3.83878906 13.54605469 3.42757813 12.46710937 3.00390625 11.35546875 C2.61589844 10.32292969 2.22789063 9.29039062 1.828125 8.2265625 C1.4765332 7.29408691 1.12494141 6.36161133 0.76269531 5.40087891 C0 3 0 3 0 0 Z " fill="#599742" transform="translate(1713,770)"/>
<path d="M0 0 C2.3369435 2.3369435 2.89961411 4.07549631 4.00512695 7.18164062 C4.59519783 8.82605637 4.59519783 8.82605637 5.19718933 10.50369263 C5.62324966 11.70903656 6.04931 12.91438049 6.48828125 14.15625 C6.94265791 15.4285623 7.39757033 16.70068338 7.85298157 17.97262573 C8.83131162 20.70822275 9.80617956 23.44501942 10.77838135 26.18280029 C12.32676309 30.54272667 13.88300493 34.89981933 15.44091797 39.25634766 C15.97132305 40.73977319 16.50171851 42.22320216 17.03210449 43.70663452 C17.29622635 44.44533154 17.56034821 45.18402855 17.83247375 45.94511032 C18.64185217 48.20967532 19.45048513 50.47450524 20.25891113 52.7394104 C25.33809619 66.96686129 30.47444394 81.17322426 35.625 95.375 C36.49070757 97.76364785 37.35634864 100.1523198 38.22192383 102.54101562 C39.95001874 107.30969339 41.67849248 112.0782336 43.40722656 116.84667969 C47.3365942 127.68625068 51.26081069 138.52768687 55.18548584 149.36895752 C57.37345288 155.41271233 59.56174253 161.45635034 61.75 167.5 C62.62500155 169.91666611 63.50000155 172.33333277 64.375 174.75 C64.808125 175.94625 65.24125 177.1425 65.6875 178.375 C67.65625 183.8125 67.65625 183.8125 69.625 189.25 C70.0580545 190.44605362 70.49110901 191.64210724 70.93728638 192.87440491 C71.81300279 195.29305364 72.68871487 197.71170396 73.56442261 200.13035583 C75.74092592 206.14170968 77.91750277 212.15303688 80.09423828 218.16430664 C84.16279547 229.40027052 88.23063984 240.63649105 92.29595947 251.87362671 C93.9651134 256.48739256 95.63462771 261.10102799 97.30421829 265.71463585 C98.43626759 268.842933 99.56805375 271.97132475 100.69946289 275.09985352 C101.95278405 278.5654494 103.20682118 282.03078555 104.4609375 285.49609375 C104.85106018 286.57555267 105.24118286 287.6550116 105.64312744 288.7671814 C107.45624496 293.77591494 109.28409069 298.77802227 111.15332031 303.76611328 C111.4840152 304.65105972 111.81471008 305.53600616 112.15542603 306.44776917 C112.76641616 308.07827507 113.38150457 309.70725383 114.0015564 311.33433533 C115.13544416 314.36097846 116 316.73921301 116 320 C42.08 320 -31.84 320 -108 320 C-115.26 298.22 -122.52 276.44 -130 254 C-135.54685765 237.6977748 -135.54685765 237.6977748 -141.125 221.40625 C-143.22268808 215.28607213 -145.3106869 209.16277325 -147.375 203.03125 C-147.63812988 202.25672485 -147.90125977 201.48219971 -148.17236328 200.6842041 C-150 195.23048451 -150 195.23048451 -150 193 C-148.55102539 191.5546875 -148.55102539 191.5546875 -146.53515625 189.875 C-142.03695884 186.04910637 -137.72925149 182.05483127 -133.4375 178 C-132.72142578 177.32710937 -132.00535156 176.65421875 -131.26757812 175.9609375 C-122.5597577 167.79396697 -122.5597577 167.79396697 -114.5 159 C-112.2544206 156.39352391 -109.95448488 153.91065479 -107.5 151.5 C-103.78795884 147.83712494 -100.39208825 143.95850906 -97 140 C-96.1162087 138.98018849 -95.23206755 137.96068012 -94.34765625 136.94140625 C-71.95697393 111.06931459 -51.69509962 83.64740061 -33 55 C-32.52095215 54.26620117 -32.0419043 53.53240234 -31.54833984 52.77636719 C-23.74682937 40.76388913 -16.54568563 28.43206844 -9.4453125 15.99609375 C-6.37147275 10.61817007 -3.21328051 5.29563402 0 0 Z " fill="#599742" transform="translate(1863,1246)"/>
<path d="M0 0 C280.83 0 561.66 0 851 0 C847.61981344 11.26728852 847.61981344 11.26728852 845.5546875 16.84765625 C844.89919922 18.61979492 844.89919922 18.61979492 844.23046875 20.42773438 C843.78316406 21.62720703 843.33585937 22.82667969 842.875 24.0625 C842.41996094 25.29677734 841.96492188 26.53105469 841.49609375 27.80273438 C838.12835506 36.87164494 838.12835506 36.87164494 837 38 C835.17179915 38.09796644 833.33975678 38.12447196 831.50893301 38.1241985 C830.30691552 38.12644579 829.10489803 38.12869308 827.86645576 38.13100848 C826.512708 38.12844217 825.1589604 38.12578523 823.80521297 38.12304783 C822.37660398 38.12378657 820.94799516 38.1249642 819.51938686 38.12654433 C815.55745463 38.12963391 811.59554778 38.12642132 807.63361743 38.12226619 C803.33708614 38.1188494 799.04055757 38.12119945 794.74402577 38.12284368 C787.20187248 38.12492354 779.65972706 38.12326326 772.11757469 38.11920547 C760.90254236 38.11318832 749.68751502 38.112868 738.47248137 38.11374746 C719.61008025 38.11506365 700.74768262 38.11171131 681.88528252 38.10573006 C663.19978251 38.09982004 644.51428397 38.09596553 625.82878304 38.09487724 C624.08832776 38.09477413 624.08832776 38.09477413 622.31271178 38.09466894 C616.42050314 38.09433062 610.52829451 38.09402923 604.63608588 38.09374207 C562.86391628 38.09163972 521.0917486 38.08489696 479.31958008 38.07543945 C438.72973643 38.06626022 398.1398933 38.05917406 357.55004883 38.05493164 C356.29965556 38.05480011 355.04926228 38.05466859 353.76097831 38.05453308 C341.20441219 38.0532146 328.64784608 38.05193878 316.09127996 38.05069422 C290.51040263 38.04815777 264.92952535 38.04533652 239.34864807 38.04234314 C237.58426266 38.0421372 237.58426266 38.0421372 235.78423311 38.04192711 C157.18948793 38.03272106 78.59474387 38.01679857 0 38 C0 25.46 0 12.92 0 0 Z " fill="#D8A328" transform="translate(549,699)"/>
<path d="M0 0 C271.92 0 543.84 0 824 0 C822.74044672 5.66798976 821.69234272 10.27654618 819.65234375 15.53125 C818.99202148 17.24054687 818.99202148 17.24054687 818.31835938 18.984375 C817.86267578 20.14453125 817.40699219 21.3046875 816.9375 22.5 C816.47794922 23.69109375 816.01839844 24.8821875 815.54492188 26.109375 C812.14583333 34.85416667 812.14583333 34.85416667 811 36 C809.22743187 36.09786233 807.45091328 36.12447216 805.67564577 36.1241985 C804.51089713 36.12644579 803.34614848 36.12869308 802.14610443 36.13100848 C800.19835872 36.12706796 800.19835872 36.12706796 798.21126461 36.12304783 C796.82699674 36.12378658 795.44272904 36.12496421 794.05846187 36.12654433 C790.21964415 36.1296338 786.38085261 36.12642141 782.54203682 36.12226619 C778.37896403 36.1188493 774.21589405 36.12119947 770.05282074 36.12284368 C762.74498928 36.12492351 755.43716593 36.12326331 748.1293354 36.11920547 C737.26273566 36.11318824 726.39614107 36.11286801 715.52953997 36.11374746 C697.2531506 36.11506364 678.97676483 36.11171134 660.70037651 36.10573006 C642.59542256 36.09982002 624.49047012 36.09596552 606.38551521 36.09487724 C605.26125671 36.0948085 604.13699822 36.09473976 602.97867128 36.09466894 C597.26950381 36.09433062 591.56033635 36.09402923 585.85116888 36.09374207 C545.37677107 36.09163972 504.90237522 36.08489698 464.42797852 36.07543945 C425.09920258 36.0662602 385.77042718 36.05917405 346.44165039 36.05493164 C345.23010257 36.05480011 344.01855475 36.05466859 342.77029337 36.05453308 C330.60381565 36.0532146 318.43733793 36.05193878 306.27086021 36.05069422 C281.48469637 36.04815777 256.69853256 36.04533652 231.91236877 36.04234314 C230.77265455 36.04220585 229.63294032 36.04206856 228.4586893 36.04192711 C152.30579204 36.03272108 76.15289592 36.01679859 0 36 C0 24.12 0 12.24 0 0 Z " fill="#D8A328" transform="translate(549,770)"/>
<path d="M0 0 C0.33 0 0.66 0 1 0 C1.00586624 0.71439743 1.01173248 1.42879486 1.01777649 2.1648407 C1.61577546 72.07475504 6.28642169 140.69353649 18.67895508 209.625 C19 212 19 212 19 217 C-13.01 217 -45.02 217 -78 217 C-68.81537739 189.44613217 -68.81537739 189.44613217 -65.44140625 180.27734375 C-64.86229492 178.69007477 -64.86229492 178.69007477 -64.27148438 177.07073975 C-63.45679253 174.83889316 -62.64063648 172.60758051 -61.82302856 170.37680054 C-60.06608716 165.58305789 -58.31672864 160.78655667 -56.56663513 155.99031067 C-55.66937372 153.53166102 -54.77172064 151.07315426 -53.87367249 148.61479187 C-49.74595114 137.31433996 -45.64994677 126.00256931 -41.5625 114.6875 C-40.53489809 111.84425884 -39.50715123 109.0010701 -38.47940063 106.15788269 C-37.77670001 104.21389819 -37.0740433 102.26989782 -36.37142944 100.32588196 C-31.64788133 87.25731901 -26.91796334 74.19106104 -22.1875 61.125 C-21.73985291 59.88851715 -21.29220581 58.6520343 -20.83099365 57.37808228 C-13.904075 38.2459538 -6.96516553 19.11823956 0 0 Z " fill="#599742" transform="translate(1188,1349)"/>
<path d="M0 0 C7.92 0 15.84 0 24 0 C25.65 13.53 27.3 27.06 29 41 C30.60446329 28.25562819 30.60446329 28.25562819 32.20092773 15.51025391 C32.40319249 13.91565322 32.60572911 12.32108698 32.80859375 10.7265625 C32.91143677 9.89471436 33.01427979 9.06286621 33.12023926 8.20581055 C33.8859282 2.2281436 33.8859282 2.2281436 35 0 C42.26 0 49.52 0 57 0 C58.57551957 3.15103914 58.60550718 6.60486183 58.97265625 10.0703125 C59.06002548 10.86654022 59.14739471 11.66276794 59.2374115 12.48312378 C59.51604321 15.03003831 59.78933027 17.57749443 60.0625 20.125 C60.25029972 21.85029869 60.43844638 23.57555966 60.62695312 25.30078125 C61.08866463 29.53342666 61.54558315 33.76656548 62 38 C62.14622803 36.95545654 62.29245605 35.91091309 62.44311523 34.8347168 C62.9863324 30.95980158 63.53325478 27.08541687 64.08129883 23.21118164 C64.31798806 21.53424085 64.55367191 19.85715784 64.78833008 18.17993164 C65.12577392 15.76931276 65.46682874 13.3592283 65.80859375 10.94921875 C65.91280136 10.19912033 66.01700897 9.44902191 66.12437439 8.67619324 C66.55454545 5.66369656 67.035233 2.89430099 68 0 C75.92 0 83.84 0 92 0 C90.71548051 10.60536836 89.42932655 21.210535 88.14029789 31.81535625 C87.54180973 36.73965521 86.94403696 41.66403881 86.34790039 46.58862305 C85.77252064 51.34151788 85.19526004 56.09418084 84.61669731 60.84668922 C84.39634708 62.65947153 84.17667351 64.47233622 83.95768929 66.28528404 C83.65075109 68.82542085 83.34140369 71.36525354 83.03149414 73.9050293 C82.94158203 74.65381348 82.85166992 75.40259766 82.7590332 76.17407227 C82.30980231 79.8346573 81.72468778 83.37656109 81 87 C71.1 87 61.2 87 51 87 C50.72285156 84.84597656 50.44570312 82.69195313 50.16015625 80.47265625 C49.88977509 78.39415197 49.61793332 76.31584363 49.34594727 74.23754883 C49.15724163 72.78950535 48.97006273 71.34126209 48.78442383 69.89282227 C48.51781897 67.81472623 48.24578889 65.73740307 47.97265625 63.66015625 C47.81031494 62.40855713 47.64797363 61.15695801 47.48071289 59.86743164 C47.30367528 57.11018767 47.30367528 57.11018767 46 56 C44.35 66.23 42.7 76.46 41 87 C31.1 87 21.2 87 11 87 C9.56373061 76.09984044 8.12909011 65.19946991 6.69733429 54.29871655 C6.03248272 49.23733898 5.3669113 44.17605824 4.69970703 39.11499023 C4.05611824 34.23285427 3.41440431 29.35047524 2.77400208 24.4679203 C2.52906875 22.60307302 2.28345438 20.73831506 2.03715515 18.87364769 C1.69290084 16.26650126 1.35104633 13.65905077 1.00976562 11.05151367 C0.9069075 10.27683746 0.80404938 9.50216125 0.69807434 8.70401001 C0.31705399 5.77742299 0 2.95503689 0 0 Z " fill="#000000" transform="translate(1114,1681)"/>
<path d="M0 0 C9.24 0 18.48 0 28 0 C28.33 11.22 28.66 22.44 29 34 C32.24784339 23.55941949 32.24784339 23.55941949 35.49194336 13.11767578 C35.89944099 11.81017901 36.30706575 10.50272185 36.71484375 9.1953125 C36.92564575 8.51460693 37.13644775 7.83390137 37.3536377 7.13256836 C38.8859282 2.2281436 38.8859282 2.2281436 40 0 C48.58 0 57.16 0 66 0 C64.87566852 7.87032037 64.87566852 7.87032037 63.67724609 11.26367188 C63.28211319 12.40020203 63.28211319 12.40020203 62.8789978 13.55969238 C62.45549545 14.7521759 62.45549545 14.7521759 62.0234375 15.96875 C61.42917725 17.6912303 60.83544309 19.41389217 60.2421875 21.13671875 C59.30899111 23.82469802 58.3711788 26.51082216 57.42382812 29.19384766 C56.50599897 31.80183725 55.60730412 34.41581938 54.7109375 37.03125 C54.42455414 37.82623901 54.13817078 38.62122803 53.84310913 39.44030762 C50.78009467 48.46654851 53.72200069 55.94053485 56.37890625 64.76953125 C56.71043198 65.88688156 57.0419577 67.00423187 57.38352966 68.15544128 C58.43853931 71.70919643 59.50004593 75.26096404 60.5625 78.8125 C61.62774399 82.38211127 62.69155716 85.95213051 63.75218201 89.52311707 C64.41146351 91.74200219 65.0735494 93.96005631 65.73866272 96.17720032 C66.03574631 97.17551376 66.3328299 98.17382721 66.63891602 99.20239258 C66.9023732 100.08284744 67.16583038 100.96330231 67.43727112 101.87043762 C68 104 68 104 68 106 C58.43 106 48.86 106 39 106 C38.0925 102.865 37.185 99.73 36.25 96.5 C35.97317383 95.54931641 35.69634766 94.59863281 35.41113281 93.61914062 C33.06230403 85.44845623 31.06689284 77.26757135 29 69 C28.67 81.21 28.34 93.42 28 106 C18.76 106 9.52 106 0 106 C0 71.02 0 36.04 0 0 Z " fill="#000000" transform="translate(549,1662)"/>
<path d="M0 0 C13.2 0 26.4 0 40 0 C42.25008199 7.87528696 42.25008199 7.87528696 42.77200317 11.33204651 C42.89255066 12.11551453 43.01309814 12.89898254 43.13729858 13.70619202 C43.26101837 14.5412175 43.38473816 15.37624298 43.51220703 16.23657227 C43.64904907 17.13503876 43.78589111 18.03350525 43.92687988 18.959198 C44.3751509 21.91092197 44.81670149 24.86360446 45.2578125 27.81640625 C45.56856092 29.87715252 45.87959019 31.93785646 46.19088745 33.9985199 C46.84102984 38.30936 47.48785656 42.62068104 48.13232422 46.93237305 C48.95782149 52.45347146 49.79143036 57.97330863 50.62750435 63.49281406 C51.27069488 67.74484994 51.90965194 71.99751365 52.54732895 76.25037956 C52.85304201 78.28590158 53.16005074 80.32122945 53.4683876 82.35635567 C53.8987424 85.20122151 54.3234033 88.04688134 54.74658203 90.89282227 C54.93823441 92.14839684 54.93823441 92.14839684 55.13375854 93.42933655 C55.24866638 94.20998474 55.36357422 94.99063293 55.48196411 95.79493713 C55.58260729 96.46612863 55.68325047 97.13732012 55.78694344 97.82885075 C56.05303657 100.54046821 56 103.27535786 56 106 C46.43 106 36.86 106 27 106 C26.67 99.73 26.34 93.46 26 87 C23.03 87 20.06 87 17 87 C16.93941406 87.95261719 16.87882812 88.90523437 16.81640625 89.88671875 C16.73261719 91.14097656 16.64882812 92.39523437 16.5625 93.6875 C16.48128906 94.92886719 16.40007812 96.17023438 16.31640625 97.44921875 C16 101 16 101 15 106 C5.43 106 -4.14 106 -14 106 C-12.85089754 89.9125656 -12.85089754 89.9125656 -11.80078125 82.28833008 C-11.68519867 81.4230368 -11.56961609 80.55774353 -11.45053101 79.66622925 C-11.07544772 76.86673718 -10.69417758 74.06813121 -10.3125 71.26953125 C-10.04698509 69.3013655 -9.78177237 67.33315896 -9.5168457 65.36491394 C-8.96482242 61.27081228 -8.40983081 57.177128 -7.85253906 53.08374023 C-7.13801505 47.83433496 -6.43005034 42.5840701 -5.72413635 37.33350086 C-5.17905103 33.28325829 -4.63105961 29.23341324 -4.0821228 25.18369102 C-3.81979313 23.24647259 -3.55825288 21.30914708 -3.29751587 19.37171364 C-2.93430013 16.67685127 -2.56729941 13.98253168 -2.19921875 11.28833008 C-2.09217621 10.48889481 -1.98513367 9.68945953 -1.87484741 8.86579895 C-1.45092812 5.78721151 -0.98529058 2.95587173 0 0 Z M21 31 C18.94266483 33.05733517 19.32600343 37.13494179 19.02734375 39.97265625 C18.93997452 40.77029892 18.85260529 41.56794159 18.7625885 42.38975525 C18.48345076 44.94690968 18.21041458 47.50467464 17.9375 50.0625 C17.74974933 51.79236121 17.5616035 53.52217958 17.37304688 55.25195312 C16.91077127 59.50081784 16.45396813 63.75023998 16 68 C18.97 68 21.94 68 25 68 C24.33515537 55.63039069 23.23497188 43.32455202 22 31 C21.67 31 21.34 31 21 31 Z " fill="#000000" transform="translate(1251,1662)"/>
<path d="M0 0 C2.89453922 1.01836404 4.53600971 2.10903071 7 4 C7.66 4.33 8.32 4.66 9 5 C9.33 3.68 9.66 2.36 10 1 C18.58 1 27.16 1 36 1 C36.0904597 12.09209929 36.16380757 23.18395256 36.20724869 34.27633762 C36.2281009 39.4272847 36.25637547 44.57796577 36.30175781 49.72875977 C36.34529974 54.70193526 36.36915491 59.67485528 36.37950897 64.64820671 C36.38688535 66.54319211 36.40128977 68.43816393 36.42292023 70.33304024 C36.45206531 72.99259503 36.45595139 75.65110157 36.45410156 78.31079102 C36.47567322 79.47928589 36.47567322 79.47928589 36.49768066 80.67138672 C36.45024738 86.99656256 34.53089879 91.01957417 30.39453125 95.890625 C22.52940692 102.6488059 14.22377518 103.50771904 4.125 103.4375 C3.11308594 103.45748047 2.10117188 103.47746094 1.05859375 103.49804688 C-7.46096744 103.49259261 -15.39807198 102.01385814 -22.0625 96.4375 C-24 93 -24 93 -26 82 C-17.09 82 -8.18 82 1 82 C1.66 83.32 2.32 84.64 3 86 C4.65 86.33 6.3 86.66 8 87 C8.33 82.71 8.66 78.42 9 74 C7.453125 74.99 7.453125 74.99 5.875 76 C-0.04716879 78.9716597 -6.53457346 78.83255493 -13 78 C-17.84557198 75.96648658 -21.37701022 73.62965205 -24 69 C-27.05693318 60.41963974 -26.30314265 50.67440616 -26.26074219 41.70507812 C-26.25002495 39.00628184 -26.26067965 36.30815103 -26.2734375 33.609375 C-26.29342494 10.37229779 -26.29342494 10.37229779 -20 3 C-14.04886361 -1.46602336 -7.06576326 -0.71648516 0 0 Z M3 16 C1.84589746 18.30820508 1.8789703 19.60784276 1.88647461 22.17431641 C1.88655014 23.03505768 1.88662567 23.89579895 1.88670349 24.78262329 C1.89186478 25.71287323 1.89702606 26.64312317 1.90234375 27.6015625 C1.9037587 28.55316254 1.90517365 29.50476257 1.90663147 30.48519897 C1.91223988 33.53183097 1.92479381 36.57839013 1.9375 39.625 C1.94251392 41.68749894 1.94707701 43.74999903 1.95117188 45.8125 C1.96221204 50.87502817 1.97948233 55.93750173 2 61 C3.65 61.33 5.3 61.66 7 62 C9.68355083 58.05477479 9.27041382 53.75885736 9.23046875 49.18359375 C9.23001053 48.33072281 9.22955231 47.47785187 9.2290802 46.59913635 C9.22606404 44.79955653 9.21819676 42.99997918 9.20581055 41.20043945 C9.1875436 38.44407926 9.18530105 35.68805507 9.18554688 32.93164062 C9.1806317 31.18228876 9.17480338 29.43293917 9.16796875 27.68359375 C9.16685593 26.85854843 9.1657431 26.03350311 9.16459656 25.18345642 C9.13709204 21.87390571 9.05369895 19.16109686 8 16 C6.35 16 4.7 16 3 16 Z " fill="#000000" transform="translate(2992,1680)"/>
<path d="M0 0 C2.89453922 1.01836404 4.53600971 2.10903071 7 4 C7.66 4.33 8.32 4.66 9 5 C9.33 3.68 9.66 2.36 10 1 C18.58 1 27.16 1 36 1 C36.0904597 12.09209929 36.16380757 23.18395256 36.20724869 34.27633762 C36.2281009 39.4272847 36.25637547 44.57796577 36.30175781 49.72875977 C36.34529974 54.70193526 36.36915491 59.67485528 36.37950897 64.64820671 C36.38688535 66.54319211 36.40128977 68.43816393 36.42292023 70.33304024 C36.45206531 72.99259503 36.45595139 75.65110157 36.45410156 78.31079102 C36.47567322 79.47928589 36.47567322 79.47928589 36.49768066 80.67138672 C36.45024738 86.99656256 34.53089879 91.01957417 30.39453125 95.890625 C22.52940692 102.6488059 14.22377518 103.50771904 4.125 103.4375 C3.11308594 103.45748047 2.10117188 103.47746094 1.05859375 103.49804688 C-7.46096744 103.49259261 -15.39807198 102.01385814 -22.0625 96.4375 C-24 93 -24 93 -26 82 C-17.09 82 -8.18 82 1 82 C1.66 83.32 2.32 84.64 3 86 C4.65 86.33 6.3 86.66 8 87 C8.33 82.71 8.66 78.42 9 74 C7.453125 74.99 7.453125 74.99 5.875 76 C-0.04716879 78.9716597 -6.53457346 78.83255493 -13 78 C-17.84557198 75.96648658 -21.37701022 73.62965205 -24 69 C-27.05693318 60.41963974 -26.30314265 50.67440616 -26.26074219 41.70507812 C-26.25002495 39.00628184 -26.26067965 36.30815103 -26.2734375 33.609375 C-26.29342494 10.37229779 -26.29342494 10.37229779 -20 3 C-14.04886361 -1.46602336 -7.06576326 -0.71648516 0 0 Z M3 16 C1.84589746 18.30820508 1.8789703 19.60784276 1.88647461 22.17431641 C1.88655014 23.03505768 1.88662567 23.89579895 1.88670349 24.78262329 C1.89186478 25.71287323 1.89702606 26.64312317 1.90234375 27.6015625 C1.9037587 28.55316254 1.90517365 29.50476257 1.90663147 30.48519897 C1.91223988 33.53183097 1.92479381 36.57839013 1.9375 39.625 C1.94251392 41.68749894 1.94707701 43.74999903 1.95117188 45.8125 C1.96221204 50.87502817 1.97948233 55.93750173 2 61 C3.65 61.33 5.3 61.66 7 62 C9.68355083 58.05477479 9.27041382 53.75885736 9.23046875 49.18359375 C9.23001053 48.33072281 9.22955231 47.47785187 9.2290802 46.59913635 C9.22606404 44.79955653 9.21819676 42.99997918 9.20581055 41.20043945 C9.1875436 38.44407926 9.18530105 35.68805507 9.18554688 32.93164062 C9.1806317 31.18228876 9.17480338 29.43293917 9.16796875 27.68359375 C9.16685593 26.85854843 9.1657431 26.03350311 9.16459656 25.18345642 C9.13709204 21.87390571 9.05369895 19.16109686 8 16 C6.35 16 4.7 16 3 16 Z " fill="#000000" transform="translate(1340,1680)"/>
<path d="M0 0 C2.89453922 1.01836404 4.53600971 2.10903071 7 4 C7.66 4.33 8.32 4.66 9 5 C9.33 3.68 9.66 2.36 10 1 C18.58 1 27.16 1 36 1 C36.0904597 12.09209929 36.16380757 23.18395256 36.20724869 34.27633762 C36.2281009 39.4272847 36.25637547 44.57796577 36.30175781 49.72875977 C36.34529974 54.70193526 36.36915491 59.67485528 36.37950897 64.64820671 C36.38688535 66.54319211 36.40128977 68.43816393 36.42292023 70.33304024 C36.45206531 72.99259503 36.45595139 75.65110157 36.45410156 78.31079102 C36.47567322 79.47928589 36.47567322 79.47928589 36.49768066 80.67138672 C36.45024738 86.99656256 34.53089879 91.01957417 30.39453125 95.890625 C22.52940692 102.6488059 14.22377518 103.50771904 4.125 103.4375 C3.11308594 103.45748047 2.10117187 103.47746094 1.05859375 103.49804688 C-7.46096744 103.49259261 -15.39807198 102.01385814 -22.0625 96.4375 C-24 93 -24 93 -26 82 C-17.09 82 -8.18 82 1 82 C1.66 83.32 2.32 84.64 3 86 C4.65 86.33 6.3 86.66 8 87 C8.33 82.71 8.66 78.42 9 74 C7.453125 74.99 7.453125 74.99 5.875 76 C-0.04716879 78.9716597 -6.53457346 78.83255493 -13 78 C-17.84557198 75.96648658 -21.37701022 73.62965205 -24 69 C-27.05693318 60.41963974 -26.30314265 50.67440616 -26.26074219 41.70507812 C-26.25002495 39.00628184 -26.26067965 36.30815103 -26.2734375 33.609375 C-26.29342494 10.37229779 -26.29342494 10.37229779 -20 3 C-14.04886361 -1.46602336 -7.06576326 -0.71648516 0 0 Z M3 16 C1.84589746 18.30820508 1.8789703 19.60784276 1.88647461 22.17431641 C1.88655014 23.03505768 1.88662567 23.89579895 1.88670349 24.78262329 C1.89186478 25.71287323 1.89702606 26.64312317 1.90234375 27.6015625 C1.9037587 28.55316254 1.90517365 29.50476257 1.90663147 30.48519897 C1.91223988 33.53183097 1.92479381 36.57839013 1.9375 39.625 C1.94251392 41.68749894 1.94707701 43.74999903 1.95117188 45.8125 C1.96221204 50.87502817 1.97948233 55.93750173 2 61 C3.65 61.33 5.3 61.66 7 62 C9.68355083 58.05477479 9.27041382 53.75885736 9.23046875 49.18359375 C9.23001053 48.33072281 9.22955231 47.47785187 9.2290802 46.59913635 C9.22606404 44.79955653 9.21819676 42.99997918 9.20581055 41.20043945 C9.1875436 38.44407926 9.18530105 35.68805507 9.18554688 32.93164062 C9.1806317 31.18228876 9.17480338 29.43293917 9.16796875 27.68359375 C9.16685593 26.85854843 9.1657431 26.03350311 9.16459656 25.18345642 C9.13709204 21.87390571 9.05369895 19.16109686 8 16 C6.35 16 4.7 16 3 16 Z " fill="#000000" transform="translate(723,1680)"/>
<path d="M0 0 C9.24 0 18.48 0 28 0 C28.33 7.26 28.66 14.52 29 22 C31.31 20.68 33.62 19.36 36 18 C39.75390625 17.50390625 39.75390625 17.50390625 43.5625 17.5625 C45.45162109 17.56443359 45.45162109 17.56443359 47.37890625 17.56640625 C52.51516115 18.18142706 55.80301382 19.70596088 59.3125 23.5 C61.99326404 27.47150228 62.13265876 30.49343562 62.16113281 35.18041992 C62.17074036 36.45572067 62.1803479 37.73102142 62.19024658 39.04496765 C62.19509605 40.44013286 62.19937451 41.83530015 62.203125 43.23046875 C62.20888052 44.66433208 62.2146382 46.0981954 62.22039795 47.53205872 C62.23090261 50.54066322 62.23674807 53.54924107 62.24023438 56.55786133 C62.2457035 60.39657815 62.26969943 64.23493748 62.29820633 68.07354259 C62.3169175 71.03769425 62.3220429 74.00176148 62.32357025 76.96596718 C62.32658064 78.38003801 62.33455416 79.79410793 62.34775543 81.20812035 C62.49494674 98.19310393 62.49494674 98.19310393 57.58331299 103.5431366 C52.07857118 108.3909529 47.19474512 108.27730892 40.17578125 108.22265625 C35.45605709 107.89175308 32.58630037 106.42767034 29.125 103.3125 C28.75375 102.879375 28.3825 102.44625 28 102 C27.34 103.32 26.68 104.64 26 106 C17.42 106 8.84 106 0 106 C0 71.02 0 36.04 0 0 Z M29 34 C27.74750058 35.02973475 27.74750058 35.02973475 27.87974548 37.24623108 C27.88196609 38.23884445 27.88418671 39.23145782 27.88647461 40.25415039 C27.88655014 41.37523697 27.88662567 42.49632355 27.88670349 43.65138245 C27.89186478 44.8711528 27.89702606 46.09092316 27.90234375 47.34765625 C27.9037587 48.58921982 27.90517365 49.83078339 27.90663147 51.10997009 C27.91129409 54.41605491 27.92028503 57.72207146 27.93133545 61.02813721 C27.94155173 64.3996115 27.94612955 67.77109283 27.95117188 71.14257812 C27.96222605 77.76173775 27.97898264 84.38086493 28 91 C29.65 91.33 31.3 91.66 33 92 C35.31144142 86.48192137 35.29049819 81.43851208 35.265625 75.5625 C35.26849518 74.06505249 35.26849518 74.06505249 35.27142334 72.53735352 C35.27278055 70.43277737 35.26911662 68.32819273 35.26074219 66.22363281 C35.25003624 63.01087556 35.26065341 59.79867745 35.2734375 56.5859375 C35.27211582 54.53645711 35.26955326 52.48697706 35.265625 50.4375 C35.26967346 49.48109619 35.27372192 48.52469238 35.27789307 47.53930664 C35.24351441 42.62524545 34.93069839 38.60913498 33 34 C31.68 34 30.36 34 29 34 Z " fill="#000000" transform="translate(845,1662)"/>
<path d="M0 0 C8.91 0 17.82 0 27 0 C27 34.98 27 69.96 27 106 C18.09 106 9.18 106 0 106 C-0.33 105.01 -0.66 104.02 -1 103 C-1.928125 103.639375 -2.85625 104.27875 -3.8125 104.9375 C-9.89016645 108.8701077 -15.94724522 108.59552815 -23 108 C-27.36775621 106.75206965 -29.65572981 104.46204684 -32.375 100.8125 C-35.99064567 93.55834031 -35.15926398 84.50274076 -35.16796875 76.60546875 C-35.17129715 75.53686111 -35.17462555 74.46825348 -35.17805481 73.36726379 C-35.18309264 71.11748685 -35.18546411 68.8677025 -35.18530273 66.61791992 C-35.18748684 63.20804312 -35.20567003 59.79849151 -35.22460938 56.38867188 C-35.22754458 54.19010526 -35.22952852 51.99153712 -35.23046875 49.79296875 C-35.23765427 48.7894487 -35.24483978 47.78592865 -35.25224304 46.7519989 C-35.19868601 29.84770053 -35.19868601 29.84770053 -31.25 22.9375 C-26.54247643 18.88379915 -22.28939458 17.56936458 -16.125 17.5625 C-14.39636719 17.53349609 -14.39636719 17.53349609 -12.6328125 17.50390625 C-9 18 -9 18 -1 22 C-0.67 14.74 -0.34 7.48 0 0 Z M-7 35 C-7.09881245 36.70789281 -7.12798966 38.41986693 -7.12939453 40.13061523 C-7.13254669 41.22522568 -7.13569885 42.31983612 -7.13894653 43.44761658 C-7.1369223 44.63923904 -7.13489807 45.83086151 -7.1328125 47.05859375 C-7.13376923 48.27321793 -7.13472595 49.4878421 -7.13571167 50.73927307 C-7.13639377 53.31421968 -7.13453741 55.889168 -7.13037109 58.46411133 C-7.12502789 62.41686858 -7.13031274 66.36951196 -7.13671875 70.32226562 C-7.13605788 72.81770859 -7.13477654 75.31315147 -7.1328125 77.80859375 C-7.13483673 78.99819199 -7.13686096 80.18779022 -7.13894653 81.41343689 C-7.13579437 82.51119949 -7.13264221 83.6089621 -7.12939453 84.73999023 C-7.12859894 85.7096019 -7.12780334 86.67921356 -7.12698364 87.6782074 C-7.15296272 90.02549219 -7.15296272 90.02549219 -6 92 C-3.52733235 91.65555119 -3.52733235 91.65555119 -1 91 C0.25839937 88.48320126 0.12698785 86.75594264 0.12939453 83.93945312 C0.13412277 82.35771301 0.13412277 82.35771301 0.13894653 80.74401855 C0.1369223 79.60130493 0.13489807 78.45859131 0.1328125 77.28125 C0.13376923 76.11243286 0.13472595 74.94361572 0.13571167 73.73937988 C0.13639313 71.26456651 0.13454122 68.78975136 0.13037109 66.31494141 C0.1250224 62.51590988 0.13031728 58.71699658 0.13671875 54.91796875 C0.13605796 52.5182289 0.13477679 50.11848913 0.1328125 47.71875 C0.13483673 46.57603638 0.13686096 45.43332275 0.13894653 44.25598145 C0.13579437 43.20148804 0.13264221 42.14699463 0.12939453 41.06054688 C0.12859894 40.1294812 0.12780334 39.19841553 0.12698364 38.23913574 C0.14606245 35.96224683 0.14606245 35.96224683 -1 34 C-4.28930404 33.63314303 -4.28930404 33.63314303 -7 35 Z " fill="#000000" transform="translate(2182,1662)"/>
<path d="M0 0 C4.50194733 2.0957341 7.27335452 4.85953835 10 9 C10.96518975 12.70195536 11.13621234 16.20893598 11.16113281 20.02441406 C11.17074036 21.21625305 11.1803479 22.40809204 11.19024658 23.63604736 C11.19449646 24.91630798 11.19874634 26.1965686 11.203125 27.515625 C11.20736607 28.50137638 11.20736607 28.50137638 11.21169281 29.50704193 C11.22664688 32.98630673 11.23589961 36.46553049 11.24023438 39.94482422 C11.2457068 43.51659771 11.26971923 47.08798766 11.29820633 50.65964127 C11.31694508 53.4256699 11.32204428 56.1916083 11.32357025 58.95769501 C11.32802176 60.90789727 11.34661299 62.858051 11.36553955 64.8081665 C11.32692845 80.30417418 11.32692845 80.30417418 6.5479126 85.61309814 C0.99330771 90.39677398 -3.28342589 90.38187567 -10.421875 90.3671875 C-15.50652268 89.84540051 -18.05480339 88.15615729 -22 85 C-22.33 89.95 -22.66 94.9 -23 100 C-32.24 100 -41.48 100 -51 100 C-51 67.33 -51 34.66 -51 1 C-41.76 1 -32.52 1 -23 1 C-22.67 2.32 -22.34 3.64 -22 5 C-21.37738281 4.45859375 -21.37738281 4.45859375 -20.7421875 3.90625 C-14.30547536 -0.94148299 -7.8238054 -1.02545022 0 0 Z M-23 17 C-23.09887792 18.74382535 -23.12799032 20.49165543 -23.12939453 22.23828125 C-23.13254669 23.35614014 -23.13569885 24.47399902 -23.13894653 25.62573242 C-23.1369223 26.84236572 -23.13489807 28.05899902 -23.1328125 29.3125 C-23.13376923 30.55169189 -23.13472595 31.79088379 -23.13571167 33.06762695 C-23.13639374 35.69388281 -23.13503538 38.32004633 -23.13037109 40.94628906 C-23.12467381 44.31928714 -23.12795302 47.69220565 -23.13394356 51.06520081 C-23.1384177 54.27263677 -23.13528882 57.480063 -23.1328125 60.6875 C-23.13483673 61.9041333 -23.13686096 63.1207666 -23.13894653 64.37426758 C-23.13579437 65.49212646 -23.13264221 66.60998535 -23.12939453 67.76171875 C-23.12859894 68.75131592 -23.12780334 69.74091309 -23.12698364 70.76049805 C-23.25100848 72.9709725 -23.25100848 72.9709725 -22 74 C-20.33382885 74.04063832 -18.66611905 74.042721 -17 74 C-15.84828693 68.50105616 -15.85535768 63.15182622 -15.8671875 57.5625 C-15.86623077 56.56420166 -15.86527405 55.56590332 -15.86428833 54.53735352 C-15.86360973 52.4327793 -15.86544167 50.32820297 -15.86962891 48.22363281 C-15.87498164 45.01101967 -15.86967303 41.79854632 -15.86328125 38.5859375 C-15.86394209 36.53645803 -15.86522337 34.48697864 -15.8671875 32.4375 C-15.86516327 31.48109619 -15.86313904 30.52469238 -15.86105347 29.53930664 C-15.87724048 24.91178682 -16.04658329 20.55216239 -17 16 C-20.28930404 15.63314303 -20.28930404 15.63314303 -23 17 Z " fill="#000000" transform="translate(1998,1680)"/>
<path d="M0 0 C8.91 0 17.82 0 27 0 C27.33 24.09 27.66 48.18 28 73 C30.475 72.505 30.475 72.505 33 72 C33.33 48.24 33.66 24.48 34 0 C43.24 0 52.48 0 62 0 C62 28.71 62 57.42 62 87 C52.76 87 43.52 87 34 87 C33.67 86.01 33.34 85.02 33 84 C32.21625 84.639375 31.4325 85.27875 30.625 85.9375 C26.47711264 89.19655435 24.02443797 89.21425067 18.75 89.3125 C17.44546875 89.34988281 16.1409375 89.38726563 14.796875 89.42578125 C10.45358571 88.93872515 8.39748779 87.67451048 5 85 C4.4225 84.54625 3.845 84.0925 3.25 83.625 C-0.20256971 79.13665938 -0.28374238 73.77515089 -0.22705078 68.34228516 C-0.22734283 67.60013763 -0.22763489 66.85799011 -0.22793579 66.09335327 C-0.22655072 63.65846765 -0.21102871 61.22389418 -0.1953125 58.7890625 C-0.19157944 57.09370084 -0.18873385 55.39833701 -0.18673706 53.70297241 C-0.1791237 49.25435362 -0.15949505 44.80586672 -0.1373291 40.3572998 C-0.11682107 35.81243676 -0.10772476 31.26755229 -0.09765625 26.72265625 C-0.07624687 17.81503708 -0.04108357 8.90755018 0 0 Z " fill="#000000" transform="translate(2651,1681)"/>
<path d="M0 0 C8.91 0 17.82 0 27 0 C27.33 24.09 27.66 48.18 28 73 C30.475 72.505 30.475 72.505 33 72 C33.33 48.24 33.66 24.48 34 0 C43.24 0 52.48 0 62 0 C62 28.71 62 57.42 62 87 C52.76 87 43.52 87 34 87 C33.67 86.01 33.34 85.02 33 84 C32.21625 84.639375 31.4325 85.27875 30.625 85.9375 C26.47711264 89.19655435 24.02443797 89.21425067 18.75 89.3125 C17.44546875 89.34988281 16.1409375 89.38726563 14.796875 89.42578125 C10.45358571 88.93872515 8.39748779 87.67451048 5 85 C4.4225 84.54625 3.845 84.0925 3.25 83.625 C-0.20256971 79.13665938 -0.28374238 73.77515089 -0.22705078 68.34228516 C-0.22734283 67.60013763 -0.22763489 66.85799011 -0.22793579 66.09335327 C-0.22655072 63.65846765 -0.21102871 61.22389418 -0.1953125 58.7890625 C-0.19157944 57.09370084 -0.18873385 55.39833701 -0.18673706 53.70297241 C-0.1791237 49.25435362 -0.15949505 44.80586672 -0.1373291 40.3572998 C-0.11682107 35.81243676 -0.10772476 31.26755229 -0.09765625 26.72265625 C-0.07624687 17.81503708 -0.04108357 8.90755018 0 0 Z " fill="#000000" transform="translate(2222,1681)"/>
<path d="M0 0 C8.91 0 17.82 0 27 0 C27.33 24.09 27.66 48.18 28 73 C30.475 72.505 30.475 72.505 33 72 C33.33 48.24 33.66 24.48 34 0 C43.24 0 52.48 0 62 0 C62 28.71 62 57.42 62 87 C52.76 87 43.52 87 34 87 C33.67 86.01 33.34 85.02 33 84 C32.21625 84.639375 31.4325 85.27875 30.625 85.9375 C26.47711264 89.19655435 24.02443797 89.21425067 18.75 89.3125 C17.44546875 89.34988281 16.1409375 89.38726563 14.796875 89.42578125 C10.45358571 88.93872515 8.39748779 87.67451048 5 85 C4.4225 84.54625 3.845 84.0925 3.25 83.625 C-0.20256971 79.13665938 -0.28374238 73.77515089 -0.22705078 68.34228516 C-0.22734283 67.60013763 -0.22763489 66.85799011 -0.22793579 66.09335327 C-0.22655072 63.65846765 -0.21102871 61.22389418 -0.1953125 58.7890625 C-0.19157944 57.09370084 -0.18873385 55.39833701 -0.18673706 53.70297241 C-0.1791237 49.25435362 -0.15949505 44.80586672 -0.1373291 40.3572998 C-0.11682107 35.81243676 -0.10772476 31.26755229 -0.09765625 26.72265625 C-0.07624687 17.81503708 -0.04108357 8.90755018 0 0 Z " fill="#000000" transform="translate(1717,1681)"/>
<path d="M0 0 C8.91 0 17.82 0 27 0 C27.33 24.09 27.66 48.18 28 73 C30.475 72.505 30.475 72.505 33 72 C33.33 48.24 33.66 24.48 34 0 C43.24 0 52.48 0 62 0 C62 28.71 62 57.42 62 87 C52.76 87 43.52 87 34 87 C33.67 86.01 33.34 85.02 33 84 C32.21625 84.639375 31.4325 85.27875 30.625 85.9375 C26.47711264 89.19655435 24.02443797 89.21425067 18.75 89.3125 C17.44546875 89.34988281 16.1409375 89.38726563 14.796875 89.42578125 C10.45358571 88.93872515 8.39748779 87.67451048 5 85 C4.4225 84.54625 3.845 84.0925 3.25 83.625 C-0.20256971 79.13665938 -0.28374238 73.77515089 -0.22705078 68.34228516 C-0.22734283 67.60013763 -0.22763489 66.85799011 -0.22793579 66.09335327 C-0.22655072 63.65846765 -0.21102871 61.22389418 -0.1953125 58.7890625 C-0.19157944 57.09370084 -0.18873385 55.39833701 -0.18673706 53.70297241 C-0.1791237 49.25435362 -0.15949505 44.80586672 -0.1373291 40.3572998 C-0.11682107 35.81243676 -0.10772476 31.26755229 -0.09765625 26.72265625 C-0.07624687 17.81503708 -0.04108357 8.90755018 0 0 Z " fill="#000000" transform="translate(1555,1681)"/>
<path d="M0 0 C5.27591566 5.13707578 7.23475853 8.33504121 7.49525452 15.72309875 C7.49303391 17.02659775 7.49081329 18.33009674 7.48852539 19.6730957 C7.48867142 20.39559006 7.48881744 21.11808441 7.4889679 21.86247253 C7.48827422 24.23777322 7.48050745 26.61299435 7.47265625 28.98828125 C7.47079013 30.64023292 7.46936714 32.29218515 7.46836853 33.94413757 C7.46455861 38.28257792 7.45474139 42.62098455 7.44366455 46.95941162 C7.4334176 51.39025415 7.42886388 55.82110215 7.42382812 60.25195312 C7.41311771 68.93881925 7.3955333 77.62565154 7.375 86.3125 C-1.535 86.3125 -10.445 86.3125 -19.625 86.3125 C-20.12 50.6725 -20.12 50.6725 -20.625 14.3125 C-22.275 14.6425 -23.925 14.9725 -25.625 15.3125 C-25.955 38.7425 -26.285 62.1725 -26.625 86.3125 C-35.865 86.3125 -45.105 86.3125 -54.625 86.3125 C-54.625 57.6025 -54.625 28.8925 -54.625 -0.6875 C-45.385 -0.6875 -36.145 -0.6875 -26.625 -0.6875 C-26.295 0.6325 -25.965 1.9525 -25.625 3.3125 C-24.861875 2.673125 -24.09875 2.03375 -23.3125 1.375 C-17.05126792 -3.4301316 -6.96493589 -3.24229774 0 0 Z " fill="#000000" transform="translate(2946.625,1681.6875)"/>
<path d="M0 0 C0.93263672 0.00612305 1.86527344 0.01224609 2.82617188 0.01855469 C9.4296325 0.16894885 14.98025323 0.88439843 20.6875 4.4375 C21.615625 4.994375 22.54375 5.55125 23.5 6.125 C30.90035578 13.94823325 31.84340492 22.1165508 31.890625 32.41796875 C31.89632507 33.3859993 31.90202515 34.35402985 31.90789795 35.35139465 C31.91732854 37.39807042 31.92387421 39.44476123 31.92773438 41.49145508 C31.93741209 44.59679227 31.96844278 47.70145935 32 50.80664062 C32.00653372 52.80207943 32.01178274 54.79752294 32.015625 56.79296875 C32.0279718 57.70999069 32.0403186 58.62701263 32.05303955 59.57182312 C32.022487 68.57175383 30.18112882 76.63835309 24.4375 83.74609375 C17.82087271 90.14118218 9.77244842 90.64183841 1.0625 90.6875 C0.10214844 90.708125 -0.85820312 90.72875 -1.84765625 90.75 C-9.36278752 90.79078769 -15.63354233 89.6448746 -22.125 85.75 C-31.48171703 75.85861343 -30.64959237 60.86630658 -30.57324219 48.07177734 C-30.56251001 45.9394896 -30.57321342 43.8080439 -30.5859375 41.67578125 C-30.61313894 16.03593033 -30.61313894 16.03593033 -22.7421875 7.79296875 C-15.7496389 1.34916275 -9.28174849 -0.10268887 0 0 Z M-1.3125 16.4375 C-2.58192299 18.97634599 -2.43951165 20.74800291 -2.44189453 23.58984375 C-2.44504669 24.66435791 -2.44819885 25.73887207 -2.45144653 26.84594727 C-2.4494223 28.01053467 -2.44739807 29.17512207 -2.4453125 30.375 C-2.44626923 31.56601318 -2.44722595 32.75702637 -2.44821167 33.98413086 C-2.44889315 36.50602267 -2.4470411 39.02791623 -2.44287109 41.54980469 C-2.43752243 45.42126384 -2.44281721 49.29260698 -2.44921875 53.1640625 C-2.44855796 55.60937526 -2.44727679 58.05468794 -2.4453125 60.5 C-2.44733673 61.6645874 -2.44936096 62.8291748 -2.45144653 64.02905273 C-2.44829437 65.10356689 -2.44514221 66.17808105 -2.44189453 67.28515625 C-2.44109894 68.23398682 -2.44030334 69.18281738 -2.43948364 70.16040039 C-2.46173834 72.4696225 -2.46173834 72.4696225 -1.3125 74.4375 C1.1625 73.9425 1.1625 73.9425 3.6875 73.4375 C4.41814602 70.15344226 4.81649894 67.10471844 4.83276367 63.74243164 C4.83914352 62.84122086 4.84552338 61.94001007 4.85209656 61.01148987 C4.85320938 60.04992477 4.8543222 59.08835968 4.85546875 58.09765625 C4.85879715 57.09794296 4.86212555 56.09822968 4.86555481 55.06822205 C4.87060866 52.95767679 4.87296361 50.84712357 4.87280273 48.73657227 C4.87498982 45.51500247 4.89316366 42.29377492 4.91210938 39.07226562 C4.91504353 37.01823033 4.91702818 34.96419342 4.91796875 32.91015625 C4.92515427 31.95061539 4.93233978 30.99107452 4.93974304 30.00245667 C4.92297831 25.07453085 4.62958852 21.05916074 2.6875 16.4375 C1.3675 16.4375 0.0475 16.4375 -1.3125 16.4375 Z " fill="#000000" transform="translate(2607.3125,1679.5625)"/>
<path d="M0 0 C0.93263672 0.00612305 1.86527344 0.01224609 2.82617188 0.01855469 C9.4296325 0.16894885 14.98025323 0.88439843 20.6875 4.4375 C21.615625 4.994375 22.54375 5.55125 23.5 6.125 C30.90035578 13.94823325 31.84340492 22.1165508 31.890625 32.41796875 C31.89632507 33.3859993 31.90202515 34.35402985 31.90789795 35.35139465 C31.91732854 37.39807042 31.92387421 39.44476123 31.92773438 41.49145508 C31.93741209 44.59679227 31.96844278 47.70145935 32 50.80664062 C32.00653372 52.80207943 32.01178274 54.79752294 32.015625 56.79296875 C32.0279718 57.70999069 32.0403186 58.62701263 32.05303955 59.57182312 C32.022487 68.57175383 30.18112882 76.63835309 24.4375 83.74609375 C17.82087271 90.14118218 9.77244842 90.64183841 1.0625 90.6875 C0.10214844 90.708125 -0.85820312 90.72875 -1.84765625 90.75 C-9.36278752 90.79078769 -15.63354233 89.6448746 -22.125 85.75 C-31.48171703 75.85861343 -30.64959237 60.86630658 -30.57324219 48.07177734 C-30.56251001 45.9394896 -30.57321342 43.8080439 -30.5859375 41.67578125 C-30.61313894 16.03593033 -30.61313894 16.03593033 -22.7421875 7.79296875 C-15.7496389 1.34916275 -9.28174849 -0.10268887 0 0 Z M-1.3125 16.4375 C-2.58192299 18.97634599 -2.43951165 20.74800291 -2.44189453 23.58984375 C-2.44504669 24.66435791 -2.44819885 25.73887207 -2.45144653 26.84594727 C-2.4494223 28.01053467 -2.44739807 29.17512207 -2.4453125 30.375 C-2.44626923 31.56601318 -2.44722595 32.75702637 -2.44821167 33.98413086 C-2.44889315 36.50602267 -2.4470411 39.02791623 -2.44287109 41.54980469 C-2.43752243 45.42126384 -2.44281721 49.29260698 -2.44921875 53.1640625 C-2.44855796 55.60937526 -2.44727679 58.05468794 -2.4453125 60.5 C-2.44733673 61.6645874 -2.44936096 62.8291748 -2.45144653 64.02905273 C-2.44829437 65.10356689 -2.44514221 66.17808105 -2.44189453 67.28515625 C-2.44109894 68.23398682 -2.44030334 69.18281738 -2.43948364 70.16040039 C-2.46173834 72.4696225 -2.46173834 72.4696225 -1.3125 74.4375 C1.1625 73.9425 1.1625 73.9425 3.6875 73.4375 C4.41814602 70.15344226 4.81649894 67.10471844 4.83276367 63.74243164 C4.83914352 62.84122086 4.84552338 61.94001007 4.85209656 61.01148987 C4.85320938 60.04992477 4.8543222 59.08835968 4.85546875 58.09765625 C4.85879715 57.09794296 4.86212555 56.09822968 4.86555481 55.06822205 C4.87060866 52.95767679 4.87296361 50.84712357 4.87280273 48.73657227 C4.87498982 45.51500247 4.89316366 42.29377492 4.91210938 39.07226562 C4.91504353 37.01823033 4.91702818 34.96419342 4.91796875 32.91015625 C4.92515427 31.95061539 4.93233978 30.99107452 4.93974304 30.00245667 C4.92297831 25.07453085 4.62958852 21.05916074 2.6875 16.4375 C1.3675 16.4375 0.0475 16.4375 -1.3125 16.4375 Z " fill="#000000" transform="translate(2103.3125,1679.5625)"/>
<path d="M0 0 C0.85142578 -0.02449219 1.70285156 -0.04898437 2.58007812 -0.07421875 C11.16632445 -0.11345521 18.33276795 2.78510636 24.68359375 8.60546875 C31.52842865 16.65926151 31.33314953 26.75881155 31.25 36.75 C31.229375 40.25625 31.20875 43.7625 31.1875 47.375 C19.9675 47.375 8.7475 47.375 -2.8125 47.375 C-2.4825 56.285 -2.1525 65.195 -1.8125 74.375 C0.6625 73.88 0.6625 73.88 3.1875 73.375 C4.30573815 71.13852369 4.38146061 69.72608471 4.50390625 67.2421875 C4.54201416 66.51628418 4.58012207 65.79038086 4.61938477 65.04248047 C4.66248779 64.12096191 4.70559082 63.19944336 4.75 62.25 C4.894375 59.32125 5.03875 56.3925 5.1875 53.375 C13.7675 53.375 22.3475 53.375 31.1875 53.375 C31.67429452 74.14489932 31.67429452 74.14489932 25.125 82.625 C18.94618598 89.08351342 12.61935989 90.52668817 3.90209961 90.84399414 C-5.60618158 90.95515604 -14.67545489 90.84974838 -22.17578125 84.31640625 C-31.98576452 73.98368852 -30.99925604 61.25301024 -30.99780273 47.82885742 C-30.9999852 45.57776857 -31.01818513 43.32717423 -31.03710938 41.07617188 C-31.13443904 16.3084137 -31.13443904 16.3084137 -24.8125 8.375 C-17.18713345 1.86802054 -9.81614604 0.01466191 0 0 Z M-1.8125 16.375 C-3.23024838 17.56352855 -3.23024838 17.56352855 -2.91015625 20.97265625 C-2.9034822 22.46096867 -2.89152183 23.94926432 -2.875 25.4375 C-2.87048828 26.19611328 -2.86597656 26.95472656 -2.86132812 27.73632812 C-2.8495068 29.61591871 -2.83157078 31.49546899 -2.8125 33.375 C-0.5025 33.375 1.8075 33.375 4.1875 33.375 C4.40834624 27.27718999 4.19917675 22.15857065 2.1875 16.375 C0.8675 16.375 -0.4525 16.375 -1.8125 16.375 Z " fill="#000000" transform="translate(1874.8125,1679.625)"/>
<path d="M0 0 C0.85142578 -0.02449219 1.70285156 -0.04898437 2.58007812 -0.07421875 C11.16632445 -0.11345521 18.33276795 2.78510636 24.68359375 8.60546875 C31.52842865 16.65926151 31.33314953 26.75881155 31.25 36.75 C31.229375 40.25625 31.20875 43.7625 31.1875 47.375 C19.9675 47.375 8.7475 47.375 -2.8125 47.375 C-2.4825 56.285 -2.1525 65.195 -1.8125 74.375 C0.6625 73.88 0.6625 73.88 3.1875 73.375 C4.30573815 71.13852369 4.38146061 69.72608471 4.50390625 67.2421875 C4.54201416 66.51628418 4.58012207 65.79038086 4.61938477 65.04248047 C4.66248779 64.12096191 4.70559082 63.19944336 4.75 62.25 C4.894375 59.32125 5.03875 56.3925 5.1875 53.375 C13.7675 53.375 22.3475 53.375 31.1875 53.375 C31.67429452 74.14489932 31.67429452 74.14489932 25.125 82.625 C18.94618598 89.08351342 12.61935989 90.52668817 3.90209961 90.84399414 C-5.60618158 90.95515604 -14.67545489 90.84974838 -22.17578125 84.31640625 C-31.98576452 73.98368852 -30.99925604 61.25301024 -30.99780273 47.82885742 C-30.9999852 45.57776857 -31.01818513 43.32717423 -31.03710938 41.07617188 C-31.13443904 16.3084137 -31.13443904 16.3084137 -24.8125 8.375 C-17.18713345 1.86802054 -9.81614604 0.01466191 0 0 Z M-1.8125 16.375 C-3.23024838 17.56352855 -3.23024838 17.56352855 -2.91015625 20.97265625 C-2.9034822 22.46096867 -2.89152183 23.94926432 -2.875 25.4375 C-2.87048828 26.19611328 -2.86597656 26.95472656 -2.86132812 27.73632812 C-2.8495068 29.61591871 -2.83157078 31.49546899 -2.8125 33.375 C-0.5025 33.375 1.8075 33.375 4.1875 33.375 C4.40834624 27.27718999 4.19917675 22.15857065 2.1875 16.375 C0.8675 16.375 -0.4525 16.375 -1.8125 16.375 Z " fill="#000000" transform="translate(1075.8125,1679.625)"/>
<path d="M0 0 C0.85142578 -0.02449219 1.70285156 -0.04898437 2.58007812 -0.07421875 C11.16632445 -0.11345521 18.33276795 2.78510636 24.68359375 8.60546875 C31.52842865 16.65926151 31.33314953 26.75881155 31.25 36.75 C31.229375 40.25625 31.20875 43.7625 31.1875 47.375 C19.9675 47.375 8.7475 47.375 -2.8125 47.375 C-2.4825 56.285 -2.1525 65.195 -1.8125 74.375 C0.6625 73.88 0.6625 73.88 3.1875 73.375 C4.30573815 71.13852369 4.38146061 69.72608471 4.50390625 67.2421875 C4.54201416 66.51628418 4.58012207 65.79038086 4.61938477 65.04248047 C4.66248779 64.12096191 4.70559082 63.19944336 4.75 62.25 C4.894375 59.32125 5.03875 56.3925 5.1875 53.375 C13.7675 53.375 22.3475 53.375 31.1875 53.375 C31.67429452 74.14489932 31.67429452 74.14489932 25.125 82.625 C18.94618598 89.08351342 12.61935989 90.52668817 3.90209961 90.84399414 C-5.60618158 90.95515604 -14.67545489 90.84974838 -22.17578125 84.31640625 C-31.98576452 73.98368852 -30.99925604 61.25301024 -30.99780273 47.82885742 C-30.9999852 45.57776857 -31.01818513 43.32717423 -31.03710938 41.07617188 C-31.13443904 16.3084137 -31.13443904 16.3084137 -24.8125 8.375 C-17.18713345 1.86802054 -9.81614604 0.01466191 0 0 Z M-1.8125 16.375 C-3.23024838 17.56352855 -3.23024838 17.56352855 -2.91015625 20.97265625 C-2.9034822 22.46096867 -2.89152183 23.94926432 -2.875 25.4375 C-2.87048828 26.19611328 -2.86597656 26.95472656 -2.86132812 27.73632812 C-2.8495068 29.61591871 -2.83157078 31.49546899 -2.8125 33.375 C-0.5025 33.375 1.8075 33.375 4.1875 33.375 C4.40834624 27.27718999 4.19917675 22.15857065 2.1875 16.375 C0.8675 16.375 -0.4525 16.375 -1.8125 16.375 Z " fill="#000000" transform="translate(949.8125,1679.625)"/>
<path d="M0 0 C0.85142578 -0.02449219 1.70285156 -0.04898437 2.58007812 -0.07421875 C11.16632445 -0.11345521 18.33276795 2.78510636 24.68359375 8.60546875 C31.52842865 16.65926151 31.33314953 26.75881155 31.25 36.75 C31.229375 40.25625 31.20875 43.7625 31.1875 47.375 C19.9675 47.375 8.7475 47.375 -2.8125 47.375 C-2.4825 56.285 -2.1525 65.195 -1.8125 74.375 C0.6625 73.88 0.6625 73.88 3.1875 73.375 C4.30573815 71.13852369 4.38146061 69.72608471 4.50390625 67.2421875 C4.54201416 66.51628418 4.58012207 65.79038086 4.61938477 65.04248047 C4.66248779 64.12096191 4.70559082 63.19944336 4.75 62.25 C4.894375 59.32125 5.03875 56.3925 5.1875 53.375 C13.7675 53.375 22.3475 53.375 31.1875 53.375 C31.67429452 74.14489932 31.67429452 74.14489932 25.125 82.625 C18.94618598 89.08351342 12.61935989 90.52668817 3.90209961 90.84399414 C-5.60618158 90.95515604 -14.67545489 90.84974838 -22.17578125 84.31640625 C-31.98576452 73.98368852 -30.99925604 61.25301024 -30.99780273 47.82885742 C-30.9999852 45.57776857 -31.01818513 43.32717423 -31.03710938 41.07617188 C-31.13443904 16.3084137 -31.13443904 16.3084137 -24.8125 8.375 C-17.18713345 1.86802054 -9.81614604 0.01466191 0 0 Z M-1.8125 16.375 C-3.23024838 17.56352855 -3.23024838 17.56352855 -2.91015625 20.97265625 C-2.9034822 22.46096867 -2.89152183 23.94926432 -2.875 25.4375 C-2.87048828 26.19611328 -2.86597656 26.95472656 -2.86132812 27.73632812 C-2.8495068 29.61591871 -2.83157078 31.49546899 -2.8125 33.375 C-0.5025 33.375 1.8075 33.375 4.1875 33.375 C4.40834624 27.27718999 4.19917675 22.15857065 2.1875 16.375 C0.8675 16.375 -0.4525 16.375 -1.8125 16.375 Z " fill="#000000" transform="translate(801.8125,1679.625)"/>
<path d="M0 0 C0.85142578 -0.02449219 1.70285156 -0.04898437 2.58007812 -0.07421875 C11.16632445 -0.11345521 18.33276795 2.78510636 24.68359375 8.60546875 C31.52842865 16.65926151 31.33314953 26.75881155 31.25 36.75 C31.229375 40.25625 31.20875 43.7625 31.1875 47.375 C19.9675 47.375 8.7475 47.375 -2.8125 47.375 C-2.4825 56.285 -2.1525 65.195 -1.8125 74.375 C0.6625 73.88 0.6625 73.88 3.1875 73.375 C4.30573815 71.13852369 4.38146061 69.72608471 4.50390625 67.2421875 C4.54201416 66.51628418 4.58012207 65.79038086 4.61938477 65.04248047 C4.66248779 64.12096191 4.70559082 63.19944336 4.75 62.25 C4.894375 59.32125 5.03875 56.3925 5.1875 53.375 C13.7675 53.375 22.3475 53.375 31.1875 53.375 C31.67429452 74.14489932 31.67429452 74.14489932 25.125 82.625 C18.94618598 89.08351342 12.61935989 90.52668817 3.90209961 90.84399414 C-5.60618158 90.95515604 -14.67545489 90.84974838 -22.17578125 84.31640625 C-31.98576452 73.98368852 -30.99925604 61.25301024 -30.99780273 47.82885742 C-30.9999852 45.57776857 -31.01818513 43.32717423 -31.03710938 41.07617188 C-31.13443904 16.3084137 -31.13443904 16.3084137 -24.8125 8.375 C-17.18713345 1.86802054 -9.81614604 0.01466191 0 0 Z M-1.8125 16.375 C-3.23024838 17.56352855 -3.23024838 17.56352855 -2.91015625 20.97265625 C-2.9034822 22.46096867 -2.89152183 23.94926432 -2.875 25.4375 C-2.87048828 26.19611328 -2.86597656 26.95472656 -2.86132812 27.73632812 C-2.8495068 29.61591871 -2.83157078 31.49546899 -2.8125 33.375 C-0.5025 33.375 1.8075 33.375 4.1875 33.375 C4.40834624 27.27718999 4.19917675 22.15857065 2.1875 16.375 C0.8675 16.375 -0.4525 16.375 -1.8125 16.375 Z " fill="#000000" transform="translate(653.8125,1679.625)"/>
<path d="M0 0 C0.928125 0.00612305 1.85625 0.01224609 2.8125 0.01855469 C11.60434755 0.21977655 19.29070958 1.91126138 25.625 8.4375 C28.48417183 13.10609941 29.01317715 16.9599254 28.8125 22.3125 C28.7196875 25.839375 28.7196875 25.839375 28.625 29.4375 C20.705 29.4375 12.785 29.4375 4.625 29.4375 C4.295 25.1475 3.965 20.8575 3.625 16.4375 C1.975 16.7675 0.325 17.0975 -1.375 17.4375 C-2.94435594 20.57621188 -2.72701103 22.97605822 -2.375 26.4375 C1.47214469 31.17009863 6.1920686 33.61644452 11.5 36.375 C25.38574375 43.59420508 25.38574375 43.59420508 29.5390625 50.72265625 C30.85807205 55.23480763 31.06680737 59.20219564 31 63.875 C31.01160156 64.68259766 31.02320312 65.49019531 31.03515625 66.32226562 C31.00458317 72.64579866 30.07374038 78.28203455 26.08203125 83.42578125 C25.53933594 83.86277344 24.99664063 84.29976562 24.4375 84.75 C23.90769531 85.19988281 23.37789062 85.64976563 22.83203125 86.11328125 C16.13135712 90.13368573 10.04312414 90.99183446 2.375 90.9375 C0.99054687 90.93000732 0.99054687 90.93000732 -0.421875 90.92236328 C-9.06865096 90.70224697 -17.27680012 89.11490845 -23.5 82.625 C-28.10775693 74.79181322 -27.5599562 67.31539755 -27.375 58.4375 C-19.455 58.4375 -11.535 58.4375 -3.375 58.4375 C-2.715 63.3875 -2.055 68.3375 -1.375 73.4375 C0.275 73.4375 1.925 73.4375 3.625 73.4375 C4.94729189 70.79291621 4.72177194 68.75988699 4.6875 65.8125 C4.67847656 64.80960938 4.66945313 63.80671875 4.66015625 62.7734375 C4.64855469 62.00257812 4.63695313 61.23171875 4.625 60.4375 C3.66400391 60.10685547 3.66400391 60.10685547 2.68359375 59.76953125 C-1.55135253 57.92519321 -5.38228685 55.54087796 -9.3125 53.125 C-10.09818359 52.65126953 -10.88386719 52.17753906 -11.69335938 51.68945312 C-24.41916073 43.90488343 -24.41916073 43.90488343 -27.375 36.4375 C-29.47614139 27.66560202 -29.48892462 17.62158409 -25.375 9.4375 C-18.92903347 1.37151542 -9.75441602 -0.108929 0 0 Z " fill="#000000" transform="translate(2536.375,1679.5625)"/>
<path d="M0 0 C0.928125 0.00612305 1.85625 0.01224609 2.8125 0.01855469 C11.60434755 0.21977655 19.29070958 1.91126138 25.625 8.4375 C28.48417183 13.10609941 29.01317715 16.9599254 28.8125 22.3125 C28.7196875 25.839375 28.7196875 25.839375 28.625 29.4375 C20.705 29.4375 12.785 29.4375 4.625 29.4375 C4.295 25.1475 3.965 20.8575 3.625 16.4375 C1.975 16.7675 0.325 17.0975 -1.375 17.4375 C-2.94435594 20.57621188 -2.72701103 22.97605822 -2.375 26.4375 C1.47214469 31.17009863 6.1920686 33.61644452 11.5 36.375 C25.38574375 43.59420508 25.38574375 43.59420508 29.5390625 50.72265625 C30.85807205 55.23480763 31.06680737 59.20219564 31 63.875 C31.01160156 64.68259766 31.02320312 65.49019531 31.03515625 66.32226562 C31.00458317 72.64579866 30.07374038 78.28203455 26.08203125 83.42578125 C25.53933594 83.86277344 24.99664063 84.29976562 24.4375 84.75 C23.90769531 85.19988281 23.37789062 85.64976563 22.83203125 86.11328125 C16.13135712 90.13368573 10.04312414 90.99183446 2.375 90.9375 C0.99054687 90.93000732 0.99054687 90.93000732 -0.421875 90.92236328 C-9.06865096 90.70224697 -17.27680012 89.11490845 -23.5 82.625 C-28.10775693 74.79181322 -27.5599562 67.31539755 -27.375 58.4375 C-19.455 58.4375 -11.535 58.4375 -3.375 58.4375 C-2.715 63.3875 -2.055 68.3375 -1.375 73.4375 C0.275 73.4375 1.925 73.4375 3.625 73.4375 C4.94729189 70.79291621 4.72177194 68.75988699 4.6875 65.8125 C4.67847656 64.80960938 4.66945313 63.80671875 4.66015625 62.7734375 C4.64855469 62.00257812 4.63695313 61.23171875 4.625 60.4375 C3.66400391 60.10685547 3.66400391 60.10685547 2.68359375 59.76953125 C-1.55135253 57.92519321 -5.38228685 55.54087796 -9.3125 53.125 C-10.09818359 52.65126953 -10.88386719 52.17753906 -11.69335938 51.68945312 C-24.41916073 43.90488343 -24.41916073 43.90488343 -27.375 36.4375 C-29.47614139 27.66560202 -29.48892462 17.62158409 -25.375 9.4375 C-18.92903347 1.37151542 -9.75441602 -0.108929 0 0 Z " fill="#000000" transform="translate(2440.375,1679.5625)"/>
<path d="M0 0 C5.33719706 3.51322292 9.50647335 7.55646611 11.5234375 13.79296875 C12.63879374 19.57497551 12.74969866 25.45496878 13.01171875 31.32421875 C4.43171875 31.32421875 -4.14828125 31.32421875 -12.98828125 31.32421875 C-13.21614583 27.77604167 -13.44401042 24.22786458 -13.671875 20.6796875 C-13.86012672 17.33239982 -13.86012672 17.33239982 -14.98828125 14.32421875 C-17.00336483 13.59098079 -17.00336483 13.59098079 -18.98828125 13.32421875 C-19.01356944 21.12043569 -19.03112193 28.91664211 -19.04321289 36.71289062 C-19.04825167 39.366866 -19.05508276 42.02083859 -19.0637207 44.67480469 C-19.07580614 48.48242886 -19.081514 52.29001644 -19.0859375 56.09765625 C-19.09109879 57.29039154 -19.09626007 58.48312683 -19.10157776 59.71200562 C-19.10165329 60.81299591 -19.10172882 61.91398621 -19.10180664 63.04833984 C-19.10513756 64.50728165 -19.10513756 64.50728165 -19.10853577 65.99569702 C-19.14284929 68.34882263 -19.14284929 68.34882263 -17.98828125 70.32421875 C-16.66828125 70.32421875 -15.34828125 70.32421875 -13.98828125 70.32421875 C-12.8700431 68.08774244 -12.79432064 66.67530346 -12.671875 64.19140625 C-12.63376709 63.46550293 -12.59565918 62.73959961 -12.55639648 61.99169922 C-12.51329346 61.07018066 -12.47019043 60.14866211 -12.42578125 59.19921875 C-12.28140625 56.27046875 -12.13703125 53.34171875 -11.98828125 50.32421875 C-3.73828125 50.32421875 4.51171875 50.32421875 13.01171875 50.32421875 C12.52202324 72.19728495 12.52202324 72.19728495 5.37109375 80.1484375 C-1.54830881 86.58472862 -8.26562409 87.81640626 -17.42578125 87.69921875 C-18.78026367 87.71662109 -18.78026367 87.71662109 -20.16210938 87.734375 C-27.55718767 87.70224577 -33.00868894 86.32971357 -39.23828125 82.13671875 C-49.21517916 71.93307316 -48.32961034 56.30852476 -48.24902344 42.88305664 C-48.23827072 40.75963938 -48.24901114 38.63706434 -48.26171875 36.51367188 C-48.28973604 12.47692297 -48.28973604 12.47692297 -41.8359375 4.9765625 C-31.35183942 -4.39927997 -12.55830757 -6.24627863 0 0 Z " fill="#000000" transform="translate(2825.98828125,1682.67578125)"/>
<path d="M0 0 C5.33719706 3.51322292 9.50647335 7.55646611 11.5234375 13.79296875 C12.63879374 19.57497551 12.74969866 25.45496878 13.01171875 31.32421875 C4.43171875 31.32421875 -4.14828125 31.32421875 -12.98828125 31.32421875 C-13.21614583 27.77604167 -13.44401042 24.22786458 -13.671875 20.6796875 C-13.86012672 17.33239982 -13.86012672 17.33239982 -14.98828125 14.32421875 C-17.00336483 13.59098079 -17.00336483 13.59098079 -18.98828125 13.32421875 C-19.01356944 21.12043569 -19.03112193 28.91664211 -19.04321289 36.71289062 C-19.04825167 39.366866 -19.05508276 42.02083859 -19.0637207 44.67480469 C-19.07580614 48.48242886 -19.081514 52.29001644 -19.0859375 56.09765625 C-19.09109879 57.29039154 -19.09626007 58.48312683 -19.10157776 59.71200562 C-19.10165329 60.81299591 -19.10172882 61.91398621 -19.10180664 63.04833984 C-19.10513756 64.50728165 -19.10513756 64.50728165 -19.10853577 65.99569702 C-19.14284929 68.34882263 -19.14284929 68.34882263 -17.98828125 70.32421875 C-16.66828125 70.32421875 -15.34828125 70.32421875 -13.98828125 70.32421875 C-12.8700431 68.08774244 -12.79432064 66.67530346 -12.671875 64.19140625 C-12.63376709 63.46550293 -12.59565918 62.73959961 -12.55639648 61.99169922 C-12.51329346 61.07018066 -12.47019043 60.14866211 -12.42578125 59.19921875 C-12.28140625 56.27046875 -12.13703125 53.34171875 -11.98828125 50.32421875 C-3.73828125 50.32421875 4.51171875 50.32421875 13.01171875 50.32421875 C12.52202324 72.19728495 12.52202324 72.19728495 5.37109375 80.1484375 C-1.54830881 86.58472862 -8.26562409 87.81640626 -17.42578125 87.69921875 C-18.78026367 87.71662109 -18.78026367 87.71662109 -20.16210938 87.734375 C-27.55718767 87.70224577 -33.00868894 86.32971357 -39.23828125 82.13671875 C-49.21517916 71.93307316 -48.32961034 56.30852476 -48.24902344 42.88305664 C-48.23827072 40.75963938 -48.24901114 38.63706434 -48.26171875 36.51367188 C-48.28973604 12.47692297 -48.28973604 12.47692297 -41.8359375 4.9765625 C-31.35183942 -4.39927997 -12.55830757 -6.24627863 0 0 Z " fill="#000000" transform="translate(2343.98828125,1682.67578125)"/>
<path d="M0 0 C5.33719706 3.51322292 9.50647335 7.55646611 11.5234375 13.79296875 C12.63879374 19.57497551 12.74969866 25.45496878 13.01171875 31.32421875 C4.43171875 31.32421875 -4.14828125 31.32421875 -12.98828125 31.32421875 C-13.21614583 27.77604167 -13.44401042 24.22786458 -13.671875 20.6796875 C-13.86012672 17.33239982 -13.86012672 17.33239982 -14.98828125 14.32421875 C-17.00336483 13.59098079 -17.00336483 13.59098079 -18.98828125 13.32421875 C-19.01356944 21.12043569 -19.03112193 28.91664211 -19.04321289 36.71289062 C-19.04825167 39.366866 -19.05508276 42.02083859 -19.0637207 44.67480469 C-19.07580614 48.48242886 -19.081514 52.29001644 -19.0859375 56.09765625 C-19.09109879 57.29039154 -19.09626007 58.48312683 -19.10157776 59.71200562 C-19.10165329 60.81299591 -19.10172882 61.91398621 -19.10180664 63.04833984 C-19.10513756 64.50728165 -19.10513756 64.50728165 -19.10853577 65.99569702 C-19.14284929 68.34882263 -19.14284929 68.34882263 -17.98828125 70.32421875 C-16.66828125 70.32421875 -15.34828125 70.32421875 -13.98828125 70.32421875 C-12.8700431 68.08774244 -12.79432064 66.67530346 -12.671875 64.19140625 C-12.63376709 63.46550293 -12.59565918 62.73959961 -12.55639648 61.99169922 C-12.51329346 61.07018066 -12.47019043 60.14866211 -12.42578125 59.19921875 C-12.28140625 56.27046875 -12.13703125 53.34171875 -11.98828125 50.32421875 C-3.73828125 50.32421875 4.51171875 50.32421875 13.01171875 50.32421875 C12.52202324 72.19728495 12.52202324 72.19728495 5.37109375 80.1484375 C-1.54830881 86.58472862 -8.26562409 87.81640626 -17.42578125 87.69921875 C-18.78026367 87.71662109 -18.78026367 87.71662109 -20.16210938 87.734375 C-27.55718767 87.70224577 -33.00868894 86.32971357 -39.23828125 82.13671875 C-49.21517916 71.93307316 -48.32961034 56.30852476 -48.24902344 42.88305664 C-48.23827072 40.75963938 -48.24901114 38.63706434 -48.26171875 36.51367188 C-48.28973604 12.47692297 -48.28973604 12.47692297 -41.8359375 4.9765625 C-31.35183942 -4.39927997 -12.55830757 -6.24627863 0 0 Z " fill="#000000" transform="translate(1530.98828125,1682.67578125)"/>
<path d="M0 0 C9.24 0 18.48 0 28 0 C28 34.98 28 69.96 28 106 C18.76 106 9.52 106 0 106 C0 71.02 0 36.04 0 0 Z " fill="#000000" transform="translate(1630,1662)"/>
<path d="M0 0 C8.91 0 17.82 0 27 0 C27 4.29 27 8.58 27 13 C29.31 13 31.62 13 34 13 C34 17.62 34 22.24 34 27 C31.69 27 29.38 27 27 27 C27.33 45.48 27.66 63.96 28 83 C30.31 83 32.62 83 35 83 C35 87.95 35 92.9 35 98 C30.95792861 98.08108167 26.91749092 98.14054629 22.875 98.1875 C21.73289062 98.21263672 20.59078125 98.23777344 19.4140625 98.26367188 C8.40909443 98.35964543 8.40909443 98.35964543 4 95 C-1.50393438 89.2277504 -0.51067371 82.4046345 -0.390625 74.8515625 C-0.3831563 73.47009096 -0.37746634 72.08860876 -0.37347412 70.7071228 C-0.35826689 67.08683562 -0.31902917 63.4671995 -0.2746582 59.84716797 C-0.23359831 56.14689947 -0.21544037 52.44652484 -0.1953125 48.74609375 C-0.15252867 41.49710036 -0.08433879 34.24864172 0 27 C-1.98 27 -3.96 27 -6 27 C-6 22.38 -6 17.76 -6 13 C-4.02 13 -2.04 13 0 13 C0 8.71 0 4.42 0 0 Z " fill="#000000" transform="translate(2370,1670)"/>
<path d="M0 0 C8.91 0 17.82 0 27 0 C27 4.29 27 8.58 27 13 C29.31 13 31.62 13 34 13 C34 17.62 34 22.24 34 27 C31.69 27 29.38 27 27 27 C27.33 45.48 27.66 63.96 28 83 C30.31 83 32.62 83 35 83 C35 87.95 35 92.9 35 98 C30.95792861 98.08108167 26.91749092 98.14054629 22.875 98.1875 C21.73289062 98.21263672 20.59078125 98.23777344 19.4140625 98.26367188 C8.40909443 98.35964543 8.40909443 98.35964543 4 95 C-1.50393438 89.2277504 -0.51067371 82.4046345 -0.390625 74.8515625 C-0.3831563 73.47009096 -0.37746634 72.08860876 -0.37347412 70.7071228 C-0.35826689 67.08683562 -0.31902917 63.4671995 -0.2746582 59.84716797 C-0.23359831 56.14689947 -0.21544037 52.44652484 -0.1953125 48.74609375 C-0.15252867 41.49710036 -0.08433879 34.24864172 0 27 C-1.98 27 -3.96 27 -6 27 C-6 22.38 -6 17.76 -6 13 C-4.02 13 -2.04 13 0 13 C0 8.71 0 4.42 0 0 Z " fill="#000000" transform="translate(1674,1670)"/>
<path d="M0 0 C0 10.56 0 21.12 0 32 C-3.3 32.66 -6.6 33.32 -10 34 C-13.24849977 35.72226496 -13.24849977 35.72226496 -14 39 C-14.11471012 40.61024513 -14.1762774 42.22455855 -14.20532227 43.83862305 C-14.22526749 44.8194133 -14.24521271 45.80020355 -14.26576233 46.81071472 C-14.29083107 48.39521172 -14.29083107 48.39521172 -14.31640625 50.01171875 C-14.33718735 51.09508011 -14.35796844 52.17844147 -14.37937927 53.29463196 C-14.44481797 56.75885616 -14.50373353 60.2231568 -14.5625 63.6875 C-14.60569061 66.03451315 -14.64930507 68.38151853 -14.69335938 70.72851562 C-14.80129198 76.48559984 -14.90040811 82.24274123 -15 88 C-24.24 88 -33.48 88 -43 88 C-43 59.29 -43 30.58 -43 1 C-33.76 1 -24.52 1 -15 1 C-15 3.31 -15 5.62 -15 8 C-14.443125 7.236875 -13.88625 6.47375 -13.3125 5.6875 C-8.96506746 0.6350784 -6.81962677 0 0 0 Z " fill="#000000" transform="translate(2769,1680)"/>
<path d="M0 0 C0 10.56 0 21.12 0 32 C-3.3 32.66 -6.6 33.32 -10 34 C-13.24849977 35.72226496 -13.24849977 35.72226496 -14 39 C-14.11471012 40.61024513 -14.1762774 42.22455855 -14.20532227 43.83862305 C-14.22526749 44.8194133 -14.24521271 45.80020355 -14.26576233 46.81071472 C-14.29083107 48.39521172 -14.29083107 48.39521172 -14.31640625 50.01171875 C-14.33718735 51.09508011 -14.35796844 52.17844147 -14.37937927 53.29463196 C-14.44481797 56.75885616 -14.50373353 60.2231568 -14.5625 63.6875 C-14.60569061 66.03451315 -14.64930507 68.38151853 -14.69335938 70.72851562 C-14.80129198 76.48559984 -14.90040811 82.24274123 -15 88 C-24.24 88 -33.48 88 -43 88 C-43 59.29 -43 30.58 -43 1 C-33.76 1 -24.52 1 -15 1 C-15 3.31 -15 5.62 -15 8 C-14.443125 7.236875 -13.88625 6.47375 -13.3125 5.6875 C-8.96506746 0.6350784 -6.81962677 0 0 0 Z " fill="#000000" transform="translate(2064,1680)"/>
<path d="M0 0 C0 10.56 0 21.12 0 32 C-3.3 32.66 -6.6 33.32 -10 34 C-13.24849977 35.72226496 -13.24849977 35.72226496 -14 39 C-14.11471012 40.61024513 -14.1762774 42.22455855 -14.20532227 43.83862305 C-14.22526749 44.8194133 -14.24521271 45.80020355 -14.26576233 46.81071472 C-14.29083107 48.39521172 -14.29083107 48.39521172 -14.31640625 50.01171875 C-14.33718735 51.09508011 -14.35796844 52.17844147 -14.37937927 53.29463196 C-14.44481797 56.75885616 -14.50373353 60.2231568 -14.5625 63.6875 C-14.60569061 66.03451315 -14.64930507 68.38151853 -14.69335938 70.72851562 C-14.80129198 76.48559984 -14.90040811 82.24274123 -15 88 C-24.24 88 -33.48 88 -43 88 C-43 59.29 -43 30.58 -43 1 C-33.76 1 -24.52 1 -15 1 C-15 3.31 -15 5.62 -15 8 C-14.443125 7.236875 -13.88625 6.47375 -13.3125 5.6875 C-8.96506746 0.6350784 -6.81962677 0 0 0 Z " fill="#000000" transform="translate(1835,1680)"/>
<path d="M0 0 C0 10.56 0 21.12 0 32 C-3.3 32.66 -6.6 33.32 -10 34 C-13.24849977 35.72226496 -13.24849977 35.72226496 -14 39 C-14.11471012 40.61024513 -14.1762774 42.22455855 -14.20532227 43.83862305 C-14.22526749 44.8194133 -14.24521271 45.80020355 -14.26576233 46.81071472 C-14.29083107 48.39521172 -14.29083107 48.39521172 -14.31640625 50.01171875 C-14.33718735 51.09508011 -14.35796844 52.17844147 -14.37937927 53.29463196 C-14.44481797 56.75885616 -14.50373353 60.2231568 -14.5625 63.6875 C-14.60569061 66.03451315 -14.64930507 68.38151853 -14.69335938 70.72851562 C-14.80129198 76.48559984 -14.90040811 82.24274123 -15 88 C-24.24 88 -33.48 88 -43 88 C-43 59.29 -43 30.58 -43 1 C-33.76 1 -24.52 1 -15 1 C-15 3.31 -15 5.62 -15 8 C-14.443125 7.236875 -13.88625 6.47375 -13.3125 5.6875 C-8.96506746 0.6350784 -6.81962677 0 0 0 Z " fill="#000000" transform="translate(1433,1680)"/>
<path d="M0 0 C0 10.56 0 21.12 0 32 C-3.3 32.66 -6.6 33.32 -10 34 C-13.24849977 35.72226496 -13.24849977 35.72226496 -14 39 C-14.11471012 40.61024513 -14.1762774 42.22455855 -14.20532227 43.83862305 C-14.22526749 44.8194133 -14.24521271 45.80020355 -14.26576233 46.81071472 C-14.29083107 48.39521172 -14.29083107 48.39521172 -14.31640625 50.01171875 C-14.33718735 51.09508011 -14.35796844 52.17844147 -14.37937927 53.29463196 C-14.44481797 56.75885616 -14.50373353 60.2231568 -14.5625 63.6875 C-14.60569061 66.03451315 -14.64930507 68.38151853 -14.69335938 70.72851562 C-14.80129198 76.48559984 -14.90040811 82.24274123 -15 88 C-24.24 88 -33.48 88 -43 88 C-43 59.29 -43 30.58 -43 1 C-33.76 1 -24.52 1 -15 1 C-15 3.31 -15 5.62 -15 8 C-14.443125 7.236875 -13.88625 6.47375 -13.3125 5.6875 C-8.96506746 0.6350784 -6.81962677 0 0 0 Z " fill="#000000" transform="translate(1036,1680)"/>
<path d="M0 0 C9.24 0 18.48 0 28 0 C28 28.71 28 57.42 28 87 C18.76 87 9.52 87 0 87 C0 58.29 0 29.58 0 0 Z " fill="#000000" transform="translate(2850,1681)"/>
<path d="M0 0 C9.24 0 18.48 0 28 0 C28 28.71 28 57.42 28 87 C18.76 87 9.52 87 0 87 C0 58.29 0 29.58 0 0 Z " fill="#000000" transform="translate(1442,1681)"/>
<path d="M0 0 C9.24 0 18.48 0 28 0 C28 4.62 28 9.24 28 14 C18.76 14 9.52 14 0 14 C0 9.38 0 4.76 0 0 Z " fill="#000000" transform="translate(2850,1662)"/>
<path d="M0 0 C9.24 0 18.48 0 28 0 C28 4.62 28 9.24 28 14 C18.76 14 9.52 14 0 14 C0 9.38 0 4.76 0 0 Z " fill="#000000" transform="translate(1442,1662)"/>
</svg>
